<svg xmlns="http://www.w3.org/2000/svg" width="8.331" height="9.64" viewBox="0 0 8.331 9.64">
  <path id="Trazado_17442" data-name="Trazado 17442" d="M591.565,253.766a.542.542,0,0,0-.225.178c-.665.662-1.324,1.33-1.993,1.983a.692.692,0,0,1-1.149-.141.614.614,0,0,1,.029-.618,1.87,1.87,0,0,1,.251-.308q1.583-1.589,3.17-3.171a.768.768,0,0,1,1.283-.013q1.616,1.607,3.225,3.223a.806.806,0,0,1,.3.63.623.623,0,0,1-.421.591.72.72,0,0,1-.8-.195l-1.992-1.99c-.062-.062-.111-.147-.213-.167-.073.087-.04.191-.04.285v5.928a1.714,1.714,0,0,1-.058.518.668.668,0,0,1-1.289-.03,1.907,1.907,0,0,1-.049-.495q0-2.952,0-5.9a.625.625,0,0,0-.034-.3Z" transform="translate(-588.128 -251.337)" fill="#0096d8"/>
</svg>
