<svg id="Grupo_22553" data-name="Grupo 22553" xmlns="http://www.w3.org/2000/svg" width="22.731" height="19.5" viewBox="0 0 22.731 19.5">
  <path id="Trazado_647" data-name="Trazado 647" d="M120.006,434c-2.893,0-5.786.005-8.679,0a2.451,2.451,0,0,1-2.233-3.867q4.322-7.174,8.735-14.293a2.464,2.464,0,0,1,4.386.011q4.419,7.159,8.774,14.357a2.456,2.456,0,0,1-2.154,3.789C125.893,434.006,122.95,434,120.006,434Zm.026-1.759q4.153,0,8.306,0c.425,0,.878.059,1.141-.4.254-.441-.046-.769-.251-1.1q-4.189-6.863-8.386-13.721c-.576-.942-1.068-.94-1.652.013q-4.2,6.856-8.386,13.721c-.618,1.014-.345,1.487.846,1.489Q115.842,432.244,120.032,432.238Z" transform="translate(-108.651 -414.5)" fill="#fa0"/>
  <path id="Trazado_651" data-name="Trazado 651" d="M178.185,451.037c0-1,0-2.009,0-3.014,0-.571.186-1.019.829-1.031.668-.013.924.43.927,1.035q.012,3.052,0,6.1c0,.582-.284,1.006-.885,1.005s-.871-.417-.87-1.009Q178.188,452.582,178.185,451.037Z" transform="translate(-167.681 -442.083)" fill="#fa0"/>
  <path id="Trazado_652" data-name="Trazado 652" d="M179.144,510.849c.565.071.9.361.88.888a.807.807,0,0,1-.881.835.863.863,0,0,1,0-1.724Z" transform="translate(-167.794 -496.296)" fill="#fa0"/>
</svg>
