<svg xmlns="http://www.w3.org/2000/svg" width="34.777" height="28.108" viewBox="0 0 34.777 28.108">
  <g id="Grupo_1423" data-name="Grupo 1423" transform="translate(288.738 161.622)">
    <path id="Trazado_529" data-name="Trazado 529" d="M-285.618-147.464a10.634,10.634,0,0,0,1.308,5.088,10.937,10.937,0,0,0,1.575,2.2,10.906,10.906,0,0,0,2.635,2.107,10.737,10.737,0,0,0,3.106,1.19,10.849,10.849,0,0,0,2.734.24,11.27,11.27,0,0,0,2.979-.516,11.1,11.1,0,0,0,2.568-1.19,10.433,10.433,0,0,0,1.4-1.06,10.74,10.74,0,0,0,1.76-2.01,10.563,10.563,0,0,0,1.058-2.01,10.424,10.424,0,0,0,.591-2.129,9.374,9.374,0,0,0,.14-1.532.463.463,0,0,1,.188-.388q1.281-1.032,2.559-2.066c.022-.018.045-.035.069-.051.1-.064.155-.045.173.068.03.185.053.371.072.558a12.586,12.586,0,0,1,.068,1.318,14.81,14.81,0,0,1-.1,1.78,13.932,13.932,0,0,1-.664,2.879,13.713,13.713,0,0,1-1.359,2.841,14.361,14.361,0,0,1-1.752,2.256,14.072,14.072,0,0,1-2.81,2.284,13.889,13.889,0,0,1-4.272,1.747,14.3,14.3,0,0,1-1.9.293,13.936,13.936,0,0,1-1.8.039,13.747,13.747,0,0,1-3.169-.5,13.941,13.941,0,0,1-3.356-1.427,14.236,14.236,0,0,1-2.163-1.573,14.065,14.065,0,0,1-2.375-2.7,13.871,13.871,0,0,1-2.094-4.949,14.276,14.276,0,0,1-.286-2.364,13.909,13.909,0,0,1,.812-5.273,13.878,13.878,0,0,1,2.15-3.893,14.009,14.009,0,0,1,2.547-2.522A14,14,0,0,1-280-160.576a14.077,14.077,0,0,1,3.03-.859,15.085,15.085,0,0,1,1.518-.165c.371-.024.742-.026,1.113-.017a13.871,13.871,0,0,1,3.836.631,14.157,14.157,0,0,1,3.112,1.409,14.443,14.443,0,0,1,3.071,2.523c.208.223.4.462.6.7.1.122.092.185-.039.284q-1.082.819-2.166,1.637c-.123.093-.181.084-.278-.035a11,11,0,0,0-2.986-2.555,10.778,10.778,0,0,0-3.818-1.352,10.6,10.6,0,0,0-2-.126,11.032,11.032,0,0,0-4.057.91,10.881,10.881,0,0,0-2.338,1.391,11.221,11.221,0,0,0-1.705,1.659,10.79,10.79,0,0,0-2.134,4.116,11.016,11.016,0,0,0-.343,2C-285.614-148.142-285.605-147.853-285.618-147.464Z" fill="#008d05"/>
    <path id="Trazado_530" data-name="Trazado 530" d="M12.821-36.686A1.81,1.81,0,0,1,14.736-38.5a1.736,1.736,0,0,1,1.179.529c.509.524.975,1.085,1.439,1.648.788.957,1.54,1.942,2.238,2.967.067.1.108.06.166,0,.6-.625,1.2-1.258,1.816-1.868.494-.486.984-.977,1.485-1.456q1.091-1.044,2.219-2.048,1.18-1.047,2.4-2.047,1.581-1.294,3.24-2.486,1.534-1.095,3.152-2.062,1.289-.767,2.637-1.423c.33-.16.663-.315,1-.452a1.812,1.812,0,0,1,2.458,1.281A1.822,1.822,0,0,1,39.1-43.837,28.486,28.486,0,0,0,35.94-42.2a44.837,44.837,0,0,0-4.018,2.723q-1.348,1.016-2.637,2.105-.95.8-1.867,1.634-.783.711-1.555,1.434c-.862.81-1.7,1.643-2.528,2.489-.575.589-1.136,1.192-1.7,1.794-.273.292-.538.591-.8.892a1.809,1.809,0,0,1-1.757.659,1.756,1.756,0,0,1-1.272-.9c-.472-.816-.989-1.6-1.534-2.372-.533-.752-1.095-1.482-1.677-2.2-.379-.464-.764-.923-1.175-1.36a2.082,2.082,0,0,1-.575-1.019A2,2,0,0,1,12.821-36.686Z" transform="translate(-294.178 -111.488)" fill="#008d05"/>
  </g>
</svg>
