<svg id="Grupo_22874" data-name="Grupo 22874" xmlns="http://www.w3.org/2000/svg" width="26.469" height="26.282" viewBox="0 0 26.469 26.282">
  <g id="Grupo_1588" data-name="Grupo 1588">
    <path id="Trazado_681" data-name="Trazado 681" d="M1666.474,316.851a1.441,1.441,0,0,1,.843-1.171c.811-.406,1.677-.681,2.512-1.03,1.766-.739,3.577-1.353,5.406-1.912,1.285-.393,2.575-.773,3.873-1.117q1.883-.5,3.8-.861c.8-.152,1.594-.333,2.4-.477.918-.165,1.833-.345,2.759-.464.752-.1,1.507-.192,2.251-.334a1.378,1.378,0,0,1,1.517.944c.349,1.021.708,2.039,1.021,3.071a1.028,1.028,0,0,1-.886,1.524c-1.309.205-2.61.46-3.911.715-.933.183-1.86.4-2.79.6q-1.488.316-2.958.7c-1.009.261-2.006.567-3,.87-1.54.468-3.085.922-4.592,1.489-.9.338-1.786.706-2.685,1.041-1.1.409-2.167.883-3.235,1.362-.86.386-1.464.043-1.624-.89-.141-.818-.332-1.627-.469-2.445A7.92,7.92,0,0,1,1666.474,316.851Z" transform="translate(-1666.474 -301.636)"/>
    <path id="Trazado_682" data-name="Trazado 682" d="M1750.432,167.079a1.47,1.47,0,0,1,1.522.883c.4,1.041.8,2.084,1.145,3.147a1.113,1.113,0,0,1-1.065,1.626c-1.018.11-2.025.3-3.033.478s-2.041.321-3.048.539c-1.324.286-2.648.57-3.959.915-1.079.284-2.163.55-3.241.836-.609.161-1.214.34-1.818.522a1.121,1.121,0,0,1-1.415-.781c-.3-1.141-.569-2.291-.9-3.423a1.512,1.512,0,0,1,1.131-1.866c1.115-.293,2.225-.607,3.348-.868,1.185-.276,2.366-.572,3.565-.781,1.126-.2,2.246-.43,3.379-.591,1.049-.148,2.092-.335,3.147-.436C1749.66,167.233,1750.125,167.129,1750.432,167.079Z" transform="translate(-1730.82 -167.079)"/>
    <path id="Trazado_683" data-name="Trazado 683" d="M1819.194,472.657a1.22,1.22,0,0,1-1.27-.947q-.487-1.727-.977-3.454a1.345,1.345,0,0,1,.678-1.485,10.841,10.841,0,0,1,1.607-.56c1.043-.338,2.089-.668,3.14-.983,1.277-.383,2.558-.749,3.856-1.06,1.245-.3,2.48-.636,3.724-.939.878-.214,1.762-.4,2.646-.593a1.351,1.351,0,0,1,1.341.9c.388,1.143.783,2.284,1.08,3.455a.959.959,0,0,1-.73,1.2c-1.99.454-3.946,1.04-5.913,1.58-1.356.372-2.7.8-4.03,1.253-1.56.524-3.128,1.026-4.685,1.561A1.164,1.164,0,0,1,1819.194,472.657Z" transform="translate(-1808.637 -446.378)"/>
  </g>
</svg>
