<svg xmlns="http://www.w3.org/2000/svg" width="22.731" height="18.371" viewBox="0 0 22.731 18.371">
  <g id="Grupo_22555" data-name="Grupo 22555" transform="translate(288.738 161.622)">
    <path id="Trazado_529" data-name="Trazado 529" d="M-286.7-152.368a6.951,6.951,0,0,0,.855,3.325,7.149,7.149,0,0,0,1.03,1.44,7.128,7.128,0,0,0,1.722,1.377,7.017,7.017,0,0,0,2.03.778,7.091,7.091,0,0,0,1.787.157,7.366,7.366,0,0,0,1.947-.337,7.254,7.254,0,0,0,1.678-.778,6.819,6.819,0,0,0,.917-.693,7.021,7.021,0,0,0,1.15-1.314,6.9,6.9,0,0,0,.691-1.313,6.813,6.813,0,0,0,.387-1.392,6.126,6.126,0,0,0,.092-1,.3.3,0,0,1,.123-.254l1.673-1.35c.014-.012.029-.023.045-.034.062-.042.1-.029.113.044.02.121.034.243.047.364a8.237,8.237,0,0,1,.045.861,9.68,9.68,0,0,1-.068,1.164,9.106,9.106,0,0,1-.434,1.881,8.962,8.962,0,0,1-.888,1.857,9.39,9.39,0,0,1-1.145,1.475,9.2,9.2,0,0,1-1.837,1.493,9.078,9.078,0,0,1-2.792,1.142,9.337,9.337,0,0,1-1.239.191,9.108,9.108,0,0,1-1.174.026,8.984,8.984,0,0,1-2.071-.327,9.113,9.113,0,0,1-2.194-.933,9.306,9.306,0,0,1-1.414-1.028,9.193,9.193,0,0,1-1.552-1.766,9.066,9.066,0,0,1-1.368-3.235,9.327,9.327,0,0,1-.187-1.545,9.091,9.091,0,0,1,.531-3.446,9.071,9.071,0,0,1,1.405-2.544,9.158,9.158,0,0,1,1.665-1.649,9.149,9.149,0,0,1,2.1-1.207,9.2,9.2,0,0,1,1.98-.562,9.866,9.866,0,0,1,.992-.108c.243-.015.485-.017.727-.011a9.066,9.066,0,0,1,2.507.412,9.254,9.254,0,0,1,2.034.921,9.44,9.44,0,0,1,2.007,1.649c.136.146.262.3.39.455.067.08.06.121-.025.185l-1.416,1.07c-.08.061-.118.055-.182-.023a7.189,7.189,0,0,0-1.952-1.67,7.045,7.045,0,0,0-2.5-.884,6.932,6.932,0,0,0-1.306-.083,7.211,7.211,0,0,0-2.652.594,7.111,7.111,0,0,0-1.528.909A7.333,7.333,0,0,0-285.062-157a7.052,7.052,0,0,0-1.395,2.69A7.194,7.194,0,0,0-286.68-153C-286.7-152.812-286.69-152.623-286.7-152.368Z" transform="translate(0 0)" fill="#008d05"/>
    <path id="Trazado_530" data-name="Trazado 530" d="M12.821-40.376a1.183,1.183,0,0,1,1.252-1.187,1.135,1.135,0,0,1,.77.345c.332.342.637.709.94,1.077.515.626,1.007,1.269,1.463,1.94.044.064.071.039.109,0,.394-.409.783-.822,1.187-1.221.323-.318.643-.638.971-.952q.713-.683,1.451-1.338.771-.684,1.568-1.338,1.033-.846,2.118-1.625,1-.716,2.06-1.348.842-.5,1.723-.93c.216-.1.434-.206.656-.3a1.185,1.185,0,0,1,1.607.837,1.191,1.191,0,0,1-.7,1.362,18.619,18.619,0,0,0-2.064,1.069,29.306,29.306,0,0,0-2.626,1.78q-.881.664-1.724,1.376-.621.522-1.22,1.068-.512.465-1.016.937c-.563.529-1.112,1.074-1.652,1.627-.376.385-.742.779-1.11,1.172-.178.191-.352.386-.522.583a1.183,1.183,0,0,1-1.148.431,1.148,1.148,0,0,1-.831-.591c-.309-.533-.646-1.048-1-1.55s-.716-.969-1.1-1.435c-.247-.3-.5-.6-.768-.889a1.361,1.361,0,0,1-.376-.666A1.309,1.309,0,0,1,12.821-40.376Z" transform="translate(-296.734 -112.457)" fill="#008d05"/>
  </g>
</svg>
