<svg xmlns="http://www.w3.org/2000/svg" width="20" height="19.64" viewBox="0 0 20 19.64">
  <g id="Grupo_1351" data-name="Grupo 1351" transform="translate(325.765 -356.833)">
    <path id="Trazado_488" data-name="Trazado 488" d="M-323.825,366.364c-.245.248-.49.5-.736.745a.7.7,0,0,1-.7.2.664.664,0,0,1-.383-1.017,1.567,1.567,0,0,1,.206-.229l9.072-8.908a.743.743,0,0,1,1.216,0l9.088,8.921a.844.844,0,0,1,.295.479.664.664,0,0,1-.333.694.7.7,0,0,1-.812-.094c-.219-.2-.424-.411-.636-.617-.053-.052-.109-.1-.175-.161a.38.38,0,0,0-.034.245q0,3.93,0,7.86a1.967,1.967,0,0,1-1.668,1.974,1.965,1.965,0,0,1-.352.023q-5.979,0-11.957,0a1.968,1.968,0,0,1-2.022-2q0-3.92,0-7.84V366.4Zm8.055,6.814c.152,0,.306-.01.457,0s.21-.056.229-.192c.032-.229.077-.456.11-.685a.281.281,0,0,1,.234-.268,2.688,2.688,0,0,0,.745-.306.227.227,0,0,1,.284.014c.2.152.419.29.623.443a.168.168,0,0,0,.264-.019q.329-.34.677-.663a.162.162,0,0,0,.017-.259c-.151-.195-.289-.4-.439-.6a.23.23,0,0,1-.026-.3,2.851,2.851,0,0,0,.319-.751.244.244,0,0,1,.227-.2c.253-.036.5-.085.758-.122.124-.018.177-.071.174-.2q-.012-.459,0-.919c0-.126-.042-.186-.17-.2-.247-.035-.491-.083-.738-.117a.27.27,0,0,1-.256-.221,2.7,2.7,0,0,0-.311-.732.229.229,0,0,1,.021-.3c.147-.19.278-.391.427-.578.088-.11.1-.187-.014-.292-.229-.208-.447-.427-.662-.649a.169.169,0,0,0-.264-.023c-.2.153-.418.291-.623.443a.227.227,0,0,1-.284.017,2.858,2.858,0,0,0-.765-.313.256.256,0,0,1-.212-.239c-.034-.235-.08-.469-.115-.7-.02-.134-.07-.2-.227-.2-.3.012-.61.01-.915,0-.144,0-.2.055-.216.183-.037.249-.087.5-.125.744a.231.231,0,0,1-.192.208,3.129,3.129,0,0,0-.784.322.216.216,0,0,1-.266-.015c-.211-.155-.43-.3-.64-.454a.16.16,0,0,0-.248.019q-.338.347-.691.678a.153.153,0,0,0-.016.243c.15.2.287.4.439.6a.24.24,0,0,1,.026.313,2.482,2.482,0,0,0-.3.713.3.3,0,0,1-.286.243c-.247.035-.491.083-.738.118-.1.015-.144.058-.143.16q0,.49,0,.98a.14.14,0,0,0,.14.162c.246.035.491.083.738.118a.3.3,0,0,1,.288.24,2.484,2.484,0,0,0,.3.713.24.24,0,0,1-.023.313c-.144.183-.269.38-.415.562-.093.116-.107.2.016.307.225.2.438.417.648.634a.177.177,0,0,0,.28.025c.2-.154.418-.292.623-.443a.216.216,0,0,1,.266-.019,3.036,3.036,0,0,0,.784.322.243.243,0,0,1,.2.226c.033.229.079.456.11.685.021.159.081.247.265.226A3.607,3.607,0,0,1-315.77,373.178Z" transform="translate(0)" fill="#fff"/>
    <path id="Trazado_489" data-name="Trazado 489" d="M-169.972,549.972a1.3,1.3,0,0,1,1.328-1.308,1.3,1.3,0,0,1,1.313,1.343,1.3,1.3,0,0,1-1.338,1.3A1.3,1.3,0,0,1-169.972,549.972Z" transform="translate(-147.111 -181.366)" fill="#fff"/>
  </g>
</svg>
