<svg xmlns="http://www.w3.org/2000/svg" width="155.541" height="54.053" viewBox="0 0 155.541 54.053">
  <g id="Grupo_1285" data-name="Grupo 1285" transform="translate(-86.233 -4.897)">
    <g id="Grupo_1272" data-name="Grupo 1272" transform="translate(193.703 13.163)">
      <g id="Grupo_1270" data-name="Grupo 1270">
        <path id="Trazado_379" data-name="Trazado 379" d="M158.252,10.148h0l-.02.013c-3.254,1.352-5.642,4.765-3.464,9.11a11.105,11.105,0,0,0,3.559,4.041,6,6,0,0,1,2.666,3.3c.005.049.016.1.024.15a1.469,1.469,0,0,1,.016.174,1.972,1.972,0,0,1,.02.3,2.319,2.319,0,0,1-4.158,1.412l-.005-.005a8.777,8.777,0,0,1-.9-1.643,12.639,12.639,0,0,0-4.478-5.231,12.059,12.059,0,0,0-1.805-.948,9.2,9.2,0,0,0-4-.724c-.062,0-.117.007-.2.007h-.037a.418.418,0,0,1-.42-.42.312.312,0,0,1,.009-.084A13.658,13.658,0,0,1,158.157,9.421a.128.128,0,0,1,.06.022.379.379,0,0,1,.035.705" transform="translate(-145.055 -9.421)" fill="#fff" fill-rule="evenodd"/>
      </g>
      <g id="Grupo_1271" data-name="Grupo 1271" transform="translate(12.108 2.426)">
        <path id="Trazado_380" data-name="Trazado 380" d="M161.482,17.323a4.518,4.518,0,0,1-1.16,2.808,2.413,2.413,0,0,1-.446.568c-.17.139-.5.333-.716.208-.192-.106-.3-.409-.311-.828-.02-.586-.053-1-.06-1.1l0-.024c0-.146-.013-.3-.029-.462-.035-.351-.079-.7-.141-1.058a6.726,6.726,0,0,0-.278-1.085,1.392,1.392,0,0,0-.186-.34c-.9-1.213-1.964-2.678-3.528-2.965a1.185,1.185,0,0,0-.155-.024,1.124,1.124,0,0,0-.113-.016,2.5,2.5,0,0,0-.356-.026,2.319,2.319,0,0,0-2.245,1.741l-.013.055v0a2.353,2.353,0,0,0-.06.524,2.2,2.2,0,0,0,.022.314,1.126,1.126,0,0,0,.016.153c.005.049.015.1.024.152a3.956,3.956,0,0,0,.919,1.765,24.575,24.575,0,0,0,3.027,2.53,14.2,14.2,0,0,1,3.048,3.391c2,3.829.241,8.381-1.526,10.531a.691.691,0,0,0-.038.069.264.264,0,0,0-.022.055.4.4,0,0,0-.024.132.381.381,0,0,0,.384.382.282.282,0,0,0,.068-.005l.031,0a13.663,13.663,0,0,0,3-23.991.513.513,0,0,0-.153-.027.385.385,0,0,0-.382.386.333.333,0,0,0,.026.133v0l.011.027a6.049,6.049,0,0,1,.555,1.641,7.44,7.44,0,0,0-.1.961c.1,1.279.7,2.171.915,3.424" transform="translate(-151.682 -10.749)" fill="#fff" fill-rule="evenodd"/>
      </g>
    </g>
    <g id="Grupo_1273" data-name="Grupo 1273" transform="translate(122.301 4.897)">
      <path id="Trazado_381" data-name="Trazado 381" d="M105.974,39.494V4.9h7.2v34.6Z" transform="translate(-105.974 -4.897)" fill="#fff"/>
    </g>
    <g id="Grupo_1274" data-name="Grupo 1274" transform="translate(132.631 4.897)">
      <rect id="Rect치ngulo_479" data-name="Rect치ngulo 479" width="7.583" height="6.398" fill="#fff"/>
    </g>
    <g id="Grupo_1275" data-name="Grupo 1275" transform="translate(132.821 14.091)">
      <rect id="Rect치ngulo_480" data-name="Rect치ngulo 480" width="7.204" height="25.402" fill="#fff"/>
    </g>
    <g id="Grupo_1276" data-name="Grupo 1276" transform="translate(96.689 6.075)">
      <path id="Trazado_382" data-name="Trazado 382" d="M102.436,5.542l-3.5,8.7L103.4,25.074h-8.85l-2.591,6.445H106l3.033,7.441h7.63Z" transform="translate(-91.956 -5.542)" fill="#fff"/>
    </g>
    <g id="Grupo_1277" data-name="Grupo 1277" transform="translate(86.235 6.082)">
      <path id="Trazado_383" data-name="Trazado 383" d="M100.452,5.545,86.234,38.957h7.441l.711-1.744L107.179,5.545Z" transform="translate(-86.234 -5.545)" fill="#fff"/>
    </g>
    <g id="Grupo_1278" data-name="Grupo 1278" transform="translate(143.949 13.808)">
      <path id="Trazado_384" data-name="Trazado 384" d="M132.063,25.174V21l.026.007v-.426a4.319,4.319,0,0,0-1.376-3.46,6.092,6.092,0,0,0-4.074-1.184,17.036,17.036,0,0,0-3.674.354,24.828,24.828,0,0,0-3.34,1.019l-1.8-5.5a28.288,28.288,0,0,1,4.359-1.469,22.921,22.921,0,0,1,5.5-.568q5.925,0,8.625,2.89t2.7,8.057V35.46h-6.945Z" transform="translate(-117.823 -9.774)" fill="#fff"/>
    </g>
    <g id="Grupo_1279" data-name="Grupo 1279" transform="translate(141.967 23.997)">
      <path id="Trazado_385" data-name="Trazado 385" d="M131.738,25.113a6.372,6.372,0,0,1-4.1,1.233,4.67,4.67,0,0,1-2.845-.806,2.662,2.662,0,0,1-1.089-2.276v-.093a2.957,2.957,0,0,1,1.326-2.607,6.434,6.434,0,0,1,3.649-.9,11.2,11.2,0,0,1,4.29.82v-4.16a21.528,21.528,0,0,0-2.607-.689,17.862,17.862,0,0,0-3.387-.283,16.1,16.1,0,0,0-4.147.5,9.5,9.5,0,0,0-3.223,1.493,6.9,6.9,0,0,0-2.108,2.512,7.967,7.967,0,0,0-.758,3.6v.1a7.689,7.689,0,0,0,.687,3.342,7.149,7.149,0,0,0,1.871,2.441,7.961,7.961,0,0,0,2.773,1.493,11.3,11.3,0,0,0,3.389.5,10.45,10.45,0,0,0,4.5-.877,10,10,0,0,0,3.009-2.18V23.5A4,4,0,0,1,131.738,25.113Z" transform="translate(-116.738 -15.351)" fill="#fff"/>
    </g>
    <g id="Grupo_1280" data-name="Grupo 1280" transform="translate(185.616 4.897)">
      <path id="Trazado_386" data-name="Trazado 386" d="M140.628,35.876v3.618h7.2V4.9h-7.2Z" transform="translate(-140.628 -4.897)" fill="#fff"/>
    </g>
    <g id="Grupo_1281" data-name="Grupo 1281" transform="translate(166.137 13.618)">
      <path id="Trazado_387" data-name="Trazado 387" d="M149.4,25.779a7.094,7.094,0,0,1-1.352,2.242,5.815,5.815,0,0,1-1.979,1.432,6.188,6.188,0,0,1-4.876,0,6.094,6.094,0,0,1-2-1.432,6.855,6.855,0,0,1-1.376-2.242,7.938,7.938,0,0,1-.506-2.887v-.1a7.894,7.894,0,0,1,.506-2.91,6.937,6.937,0,0,1,1.376-2.218,6.1,6.1,0,0,1,2-1.432,6.188,6.188,0,0,1,4.876,0,5.815,5.815,0,0,1,1.979,1.432,7.114,7.114,0,0,1,1.352,2.242c.018.046.029.093.046.139v-7A13.125,13.125,0,0,0,146.6,10.8a9.427,9.427,0,0,0-4.851-1.127,11.779,11.779,0,0,0-4.442.853,10.617,10.617,0,0,0-3.742,2.536,12.8,12.8,0,0,0-2.607,4.122,14.869,14.869,0,0,0-.99,5.616v.1a14.862,14.862,0,0,0,.99,5.616,12.594,12.594,0,0,0,2.631,4.124,10.869,10.869,0,0,0,3.766,2.534,11.662,11.662,0,0,0,4.394.853,9.162,9.162,0,0,0,4.8-1.151,11.564,11.564,0,0,0,2.894-2.5V25.642C149.429,25.688,149.418,25.735,149.4,25.779Z" transform="translate(-129.967 -9.67)" fill="#fff"/>
    </g>
    <g id="Grupo_1282" data-name="Grupo 1282" transform="translate(222.622 13.961)">
      <path id="Trazado_388" data-name="Trazado 388" d="M167.557,18.175a1.236,1.236,0,0,1-.428-.924v-.1a1.513,1.513,0,0,1,.663-1.255,3.3,3.3,0,0,1,1.992-.5,9.655,9.655,0,0,1,3.175.641,22.6,22.6,0,0,1,3.7,1.73l2.75-4.977a18.2,18.2,0,0,0-4.575-2.156,16.243,16.243,0,0,0-4.9-.782,12.2,12.2,0,0,0-3.627.521,8.464,8.464,0,0,0-2.938,1.564,7.646,7.646,0,0,0-1.99,2.536,6.8,6.8,0,0,0-.49,1.348l7.041,2.646A3.465,3.465,0,0,1,167.557,18.175Z" transform="translate(-160.883 -9.858)" fill="#fff"/>
    </g>
    <g id="Grupo_1283" data-name="Grupo 1283" transform="translate(221.158 19.937)">
      <path id="Trazado_389" data-name="Trazado 389" d="M179.988,21.881a7.165,7.165,0,0,0-1.8-2.086,11.181,11.181,0,0,0-2.465-1.445q-1.376-.592-2.7-1.019c-.468-.148-.91-.3-1.341-.444h0l-.064-.024c-.188-.064-.38-.13-.563-.2q-.428-.153-.811-.312l-8.7-3.225a8.761,8.761,0,0,0-.183,1.831v.1a6.531,6.531,0,0,0,.687,3.128,6.956,6.956,0,0,0,1.776,2.158,9.6,9.6,0,0,0,2.441,1.421,27.254,27.254,0,0,0,2.678.924q1.041.332,1.99.616a17.326,17.326,0,0,1,1.683.592,3.6,3.6,0,0,1,1.162.734,1.368,1.368,0,0,1,.426,1v.1a1.609,1.609,0,0,1-.734,1.374,4.02,4.02,0,0,1-2.3.521,11.208,11.208,0,0,1-3.862-.758,17.1,17.1,0,0,1-4.147-2.275l-3.08,4.739a17.8,17.8,0,0,0,10.9,3.839,14.129,14.129,0,0,0,3.815-.5,9.325,9.325,0,0,0,3.106-1.493,6.781,6.781,0,0,0,2.061-2.536,8.463,8.463,0,0,0,.734-3.672v-.1A5.889,5.889,0,0,0,179.988,21.881Z" transform="translate(-160.082 -13.129)" fill="#fff"/>
    </g>
    <g id="Grupo_1284" data-name="Grupo 1284" transform="translate(86.233 48.554)">
      <path id="Trazado_390" data-name="Trazado 390" d="M86.233,28.984h6.086v1.308h-4.65v2.231h4.125v1.308H87.669V37.16H86.233Z" transform="translate(-86.233 -28.633)" fill="#fff"/>
      <path id="Trazado_391" data-name="Trazado 391" d="M93.289,28.83h1.518v1.345H93.289Zm.057,2.289h1.416v6.168H93.346Z" transform="translate(-80.397 -28.761)" fill="#fff"/>
      <path id="Trazado_392" data-name="Trazado 392" d="M102.006,36.292v-.76a2.485,2.485,0,0,1-2,.89,1.975,1.975,0,0,1-2.2-1.9v-.024c0-1.367,1.063-2.021,2.5-2.021a5.2,5.2,0,0,1,1.7.256v-.115c0-.853-.537-1.321-1.518-1.321a4.291,4.291,0,0,0-1.765.386l-.385-1.133a5.3,5.3,0,0,1,2.348-.513,2.38,2.38,0,0,1,2.711,2.6v3.656Zm.037-2.582a4.078,4.078,0,0,0-1.414-.243c-.888,0-1.412.362-1.412.957v.024c0,.583.524.91,1.189.91.935,0,1.637-.524,1.637-1.3Z" transform="translate(-76.656 -27.766)" fill="#fff"/>
      <path id="Trazado_393" data-name="Trazado 393" d="M104.55,33.26v-.022a3.289,3.289,0,0,1,6.576-.024v.024a3.226,3.226,0,0,1-3.305,3.214A3.191,3.191,0,0,1,104.55,33.26Zm5.161,0v-.022a1.905,1.905,0,0,0-1.891-1.986,1.852,1.852,0,0,0-1.858,1.962v.024a1.912,1.912,0,0,0,1.88,1.986A1.861,1.861,0,0,0,109.711,33.26Z" transform="translate(-71.084 -27.782)" fill="#fff"/>
      <path id="Trazado_394" data-name="Trazado 394" d="M116.729,30.141h1.414V31.17a2.459,2.459,0,0,1,2.09-1.157,2.96,2.96,0,0,1,2.874,3.2v.024a2.952,2.952,0,0,1-2.874,3.2,2.513,2.513,0,0,1-2.09-1.087v2.826h-1.414Zm4.94,3.1v-.024a1.825,1.825,0,0,0-1.763-1.973,1.859,1.859,0,0,0-1.8,1.973v.024a1.853,1.853,0,0,0,1.8,1.975A1.806,1.806,0,0,0,121.669,33.238Z" transform="translate(-61.012 -27.782)" fill="#fff"/>
      <path id="Trazado_395" data-name="Trazado 395" d="M127.913,36.292v-.76a2.49,2.49,0,0,1-2,.89,1.974,1.974,0,0,1-2.2-1.9v-.024c0-1.367,1.063-2.021,2.5-2.021a5.2,5.2,0,0,1,1.7.256v-.115c0-.853-.537-1.321-1.518-1.321a4.291,4.291,0,0,0-1.765.386l-.384-1.133a5.294,5.294,0,0,1,2.348-.513,2.38,2.38,0,0,1,2.709,2.6v3.656Zm.035-2.582a4.075,4.075,0,0,0-1.412-.243c-.89,0-1.414.362-1.414.957v.024c0,.583.524.91,1.191.91.934,0,1.635-.524,1.635-1.3Z" transform="translate(-55.23 -27.766)" fill="#fff"/>
      <path id="Trazado_396" data-name="Trazado 396" d="M130.64,30.136h1.414v1.39a2.187,2.187,0,0,1,2.183-1.505v1.495h-.082c-1.237,0-2.1.808-2.1,2.441V36.3H130.64Z" transform="translate(-49.507 -27.777)" fill="#fff"/>
      <path id="Trazado_397" data-name="Trazado 397" d="M140.022,36.292v-.76a2.487,2.487,0,0,1-2,.89,1.974,1.974,0,0,1-2.2-1.9v-.024c0-1.367,1.063-2.021,2.5-2.021a5.215,5.215,0,0,1,1.706.256v-.115c0-.853-.537-1.321-1.518-1.321a4.284,4.284,0,0,0-1.765.386l-.385-1.133a5.294,5.294,0,0,1,2.348-.513,2.38,2.38,0,0,1,2.71,2.6v3.656Zm.035-2.582a4.067,4.067,0,0,0-1.412-.243c-.888,0-1.412.362-1.412.957v.024c0,.583.524.91,1.189.91.935,0,1.635-.524,1.635-1.3Z" transform="translate(-45.215 -27.766)" fill="#fff"/>
      <path id="Trazado_398" data-name="Trazado 398" d="M148.119,35.312V32.064h-.78V30.849h.78V29.157h1.414v1.692h1.659v1.215h-1.659v3.027a.674.674,0,0,0,.76.771,1.865,1.865,0,0,0,.875-.212v1.157a2.464,2.464,0,0,1-1.273.316A1.582,1.582,0,0,1,148.119,35.312Z" transform="translate(-35.696 -28.49)" fill="#fff"/>
      <path id="Trazado_399" data-name="Trazado 399" d="M152.886,33.26v-.022a3.289,3.289,0,0,1,6.576-.024v.024a3.226,3.226,0,0,1-3.305,3.214A3.191,3.191,0,0,1,152.886,33.26Zm5.161,0v-.022a1.905,1.905,0,0,0-1.891-1.986,1.852,1.852,0,0,0-1.858,1.962v.024a1.912,1.912,0,0,0,1.88,1.986A1.861,1.861,0,0,0,158.047,33.26Z" transform="translate(-31.108 -27.782)" fill="#fff"/>
      <path id="Trazado_400" data-name="Trazado 400" d="M160.036,34.248v-.024a2.944,2.944,0,0,1,2.861-3.2A2.551,2.551,0,0,1,165,32.11V28.792h1.412v8.527H165V36.292a2.471,2.471,0,0,1-2.1,1.157A2.957,2.957,0,0,1,160.036,34.248Zm4.986,0v-.024a1.848,1.848,0,0,0-1.785-1.973,1.807,1.807,0,0,0-1.776,1.973v.024a1.837,1.837,0,0,0,1.776,1.975A1.858,1.858,0,0,0,165.022,34.248Z" transform="translate(-25.195 -28.792)" fill="#fff"/>
      <path id="Trazado_401" data-name="Trazado 401" d="M167.244,33.26v-.022a3.29,3.29,0,0,1,6.577-.024v.024a3.227,3.227,0,0,1-3.307,3.214A3.192,3.192,0,0,1,167.244,33.26Zm5.161,0v-.022a1.905,1.905,0,0,0-1.891-1.986,1.852,1.852,0,0,0-1.858,1.962v.024a1.912,1.912,0,0,0,1.882,1.986A1.859,1.859,0,0,0,172.405,33.26Z" transform="translate(-19.234 -27.782)" fill="#fff"/>
    </g>
  </g>
</svg>
