<svg xmlns="http://www.w3.org/2000/svg" width="178.5" height="73.022" viewBox="0 0 178.5 73.022">
  <g id="Grupo_1481" data-name="Grupo 1481" transform="translate(-10.5 -84.301)">
    <g id="Grupo_1480" data-name="Grupo 1480" transform="translate(10.5 84.301)">
      <g id="Grupo_1490" data-name="Grupo 1490">
        <g id="Grupo_1482" data-name="Grupo 1482" transform="translate(0 36.273)">
          <g id="Grupo_1478" data-name="Grupo 1478" transform="translate(0.013)">
            <path id="Trazado_599" data-name="Trazado 599" d="M256.437,99.654v1.893a6.145,6.145,0,0,1,2.2-1.566,7.681,7.681,0,0,1,3.223-.655,6.882,6.882,0,0,1,5.243,2.075,7.614,7.614,0,0,1,1.966,5.462v11.47h-5.025v-10.6a3.965,3.965,0,0,0-.91-2.713,3.168,3.168,0,0,0-2.512-1.038,3.859,3.859,0,0,0-4.114,4.151v10.2h-5.061V99.654Z" transform="translate(-251.448 -93.136)" fill="#202256"/>
            <path id="Trazado_600" data-name="Trazado 600" d="M311.4,99.232a9.835,9.835,0,0,1,7.173,2.822,9.758,9.758,0,0,1,0,13.837,10.53,10.53,0,0,1-14.328.018,9.78,9.78,0,0,1,.018-13.837A9.753,9.753,0,0,1,311.4,99.232Zm3.587,6.063a5.1,5.1,0,0,0-7.173,0,5.078,5.078,0,0,0-1.438,3.7,5.2,5.2,0,0,0,1.4,3.732,4.645,4.645,0,0,0,3.514,1.475,4.954,4.954,0,0,0,3.641-1.493,5.416,5.416,0,0,0,.055-7.41Z" transform="translate(-282.056 -93.078)" fill="#202256"/>
            <path id="Trazado_601" data-name="Trazado 601" d="M365.22,118.851h-6.773l-6.081-18.679H357.9l4.042,13.873,4.005-13.873H371.3Z" transform="translate(-313.298 -93.655)" fill="#202256"/>
            <path id="Trazado_602" data-name="Trazado 602" d="M416.073,118.563V117.18a8.652,8.652,0,0,1-5.461,1.638,9.448,9.448,0,0,1-9.431-9.5,9.3,9.3,0,0,1,2.786-6.809,9.042,9.042,0,0,1,6.645-2.8,8.62,8.62,0,0,1,5.461,1.675V99.884h5.062v18.679Zm-5.024-14.273a4.661,4.661,0,0,0-3.5,1.475,5.171,5.171,0,0,0,0,7.119,4.69,4.69,0,0,0,3.5,1.456,4.942,4.942,0,0,0,3.641-1.456,5.032,5.032,0,0,0-.037-7.119A4.941,4.941,0,0,0,411.049,104.29Z" transform="translate(-343.214 -93.367)" fill="#202256"/>
            <path id="Trazado_603" data-name="Trazado 603" d="M469.433,87.488h-1.748q-2.476,0-2.476,2.185v.182h4.224V94.37h-4.224v14.164h-5.061V94.37h-2.913V89.854h2.913v-.218a5.886,5.886,0,0,1,1.857-4.661,8.024,8.024,0,0,1,5.462-1.638h1.966Z" transform="translate(-377.568 -83.337)" fill="#202256"/>
            <path id="Trazado_604" data-name="Trazado 604" d="M498.32,88.656h-5.061V83.995h5.061Zm0,20.281h-5.061V90.258h5.061Z" transform="translate(-399.646 -83.74)" fill="#202256"/>
            <path id="Trazado_605" data-name="Trazado 605" d="M525.644,118.563V117.18a8.654,8.654,0,0,1-5.462,1.638,9.448,9.448,0,0,1-9.431-9.5,9.3,9.3,0,0,1,2.785-6.809,9.042,9.042,0,0,1,6.645-2.8,8.622,8.622,0,0,1,5.462,1.675V99.884h5.061v18.679Zm-5.025-14.273a4.662,4.662,0,0,0-3.5,1.475,5.171,5.171,0,0,0,0,7.119,4.691,4.691,0,0,0,3.5,1.456,4.94,4.94,0,0,0,3.641-1.456,5.033,5.033,0,0,0-.036-7.119A4.943,4.943,0,0,0,520.619,104.29Z" transform="translate(-410.367 -93.367)" fill="#202256"/>
            <path id="Trazado_606" data-name="Trazado 606" d="M572.548,99.654v1.893a6.152,6.152,0,0,1,2.2-1.566,7.68,7.68,0,0,1,3.222-.655,6.882,6.882,0,0,1,5.243,2.075,7.614,7.614,0,0,1,1.966,5.462v11.47h-5.025v-10.6a3.967,3.967,0,0,0-.911-2.713,3.168,3.168,0,0,0-2.513-1.038,3.859,3.859,0,0,0-4.114,4.151v10.2H567.56V99.654Z" transform="translate(-445.182 -93.136)" fill="#202256"/>
            <path id="Trazado_607" data-name="Trazado 607" d="M633.441,104.177l-8.666,10.268h8.7v4.406h-15.62v-3.933l8.666-10.268h-8.739v-4.479h15.657Z" transform="translate(-475.963 -93.655)" fill="#202256"/>
            <path id="Trazado_608" data-name="Trazado 608" d="M674.717,118.563V117.18a8.653,8.653,0,0,1-5.461,1.638,9.448,9.448,0,0,1-9.431-9.5,9.3,9.3,0,0,1,2.786-6.809,9.041,9.041,0,0,1,6.645-2.8,8.621,8.621,0,0,1,5.461,1.675V99.884h5.061v18.679Zm-5.025-14.273a4.662,4.662,0,0,0-3.5,1.475,5.171,5.171,0,0,0,0,7.119,4.692,4.692,0,0,0,3.5,1.456,4.942,4.942,0,0,0,3.642-1.456,5.033,5.033,0,0,0-.037-7.119A4.943,4.943,0,0,0,669.692,104.29Z" transform="translate(-501.728 -93.367)" fill="#202256"/>
          </g>
          <g id="Grupo_1479" data-name="Grupo 1479" transform="translate(0 30.635)">
            <path id="Trazado_609" data-name="Trazado 609" d="M251.415,168.653v-5.874h4.3v1.2h-2.967v1.106h2.744v1.166h-2.744v1.2h2.975v1.2Z" transform="translate(-251.415 -162.659)" fill="#202256"/>
            <path id="Trazado_610" data-name="Trazado 610" d="M271.572,168.653v-5.874H272.9v4.656h2.727v1.217Z" transform="translate(-263.768 -162.659)" fill="#202256"/>
            <path id="Trazado_611" data-name="Trazado 611" d="M305.912,168.653h-1.629l-2.032-5.874h1.432l1.449,4.442,1.449-4.442h1.372Z" transform="translate(-282.57 -162.659)" fill="#202256"/>
            <path id="Trazado_612" data-name="Trazado 612" d="M325.572,168.653l-.335-1.012h-2.306l-.335,1.012h-1.364l2.075-5.874h1.629L327,168.653Zm-.729-2.187-.763-2.3-.763,2.3Z" transform="translate(-294.204 -162.659)" fill="#202256"/>
            <path id="Trazado_613" data-name="Trazado 613" d="M344.712,168.653v-5.874h1.329v4.656h2.727v1.217Z" transform="translate(-308.594 -162.659)" fill="#202256"/>
            <path id="Trazado_614" data-name="Trazado 614" d="M365.722,168.583a3.052,3.052,0,0,1-2.2-.879,3.064,3.064,0,0,1,0-4.356,3.224,3.224,0,0,1,4.42,0,3.105,3.105,0,0,1,0,4.365A3.05,3.05,0,0,1,365.722,168.583Zm-1.251-1.758a1.76,1.76,0,0,0,2.5,0,1.915,1.915,0,0,0,0-2.594,1.749,1.749,0,0,0-2.5,0,1.914,1.914,0,0,0,0,2.594Z" transform="translate(-319.562 -162.469)" fill="#202256"/>
            <path id="Trazado_615" data-name="Trazado 615" d="M389.035,166.655v2h-1.329v-5.874h2.5a2.01,2.01,0,0,1,1.475.54,1.9,1.9,0,0,1,.549,1.415,1.837,1.837,0,0,1-.433,1.214,1.966,1.966,0,0,1-1.171.665l1.87,2.041h-1.732Zm.978-2.658h-.978v1.569h.935a.99.99,0,0,0,.678-.219.714.714,0,0,0,.249-.562.757.757,0,0,0-.227-.57A.908.908,0,0,0,390.013,164Z" transform="translate(-334.943 -162.659)" fill="#202256"/>
            <path id="Trazado_616" data-name="Trazado 616" d="M420.755,168.653v-5.874h2.4a2.924,2.924,0,0,1,2.161.832,2.817,2.817,0,0,1,.832,2.075,2.864,2.864,0,0,1-.858,2.114,2.99,2.99,0,0,1-2.2.853ZM423.087,164h-1v3.439h1.047a1.605,1.605,0,0,0,1.2-.493,1.7,1.7,0,0,0,.48-1.239,1.649,1.649,0,0,0-.489-1.222A1.682,1.682,0,0,0,423.087,164Z" transform="translate(-355.198 -162.659)" fill="#202256"/>
            <path id="Trazado_617" data-name="Trazado 617" d="M443.725,168.653v-5.874h4.3v1.2h-2.967v1.106H447.8v1.166h-2.744v1.2h2.976v1.2Z" transform="translate(-369.275 -162.659)" fill="#202256"/>
            <path id="Trazado_618" data-name="Trazado 618" d="M475.776,168.653v-5.874h1.329v4.656h2.727v1.217Z" transform="translate(-388.918 -162.659)" fill="#202256"/>
            <path id="Trazado_619" data-name="Trazado 619" d="M498.9,168.653l-.335-1.012h-2.307l-.334,1.012h-1.363l2.075-5.874h1.629l2.067,5.874Zm-.729-2.187-.763-2.3-.763,2.3Z" transform="translate(-400.43 -162.659)" fill="#202256"/>
            <path id="Trazado_620" data-name="Trazado 620" d="M532.706,163.7a1.66,1.66,0,0,0-1.248.523,1.911,1.911,0,0,0,.009,2.59,1.715,1.715,0,0,0,1.282.523,1.762,1.762,0,0,0,1.6-.952l1.037.72a2.894,2.894,0,0,1-2.624,1.475,3.1,3.1,0,0,1-2.259-.888,2.938,2.938,0,0,1-.9-2.183,2.907,2.907,0,0,1,.9-2.165,3.068,3.068,0,0,1,2.23-.879,2.808,2.808,0,0,1,2.632,1.466l-1.055.729A1.8,1.8,0,0,0,532.706,163.7Z" transform="translate(-421.906 -162.469)" fill="#202256"/>
            <path id="Trazado_621" data-name="Trazado 621" d="M555.484,168.583a3.054,3.054,0,0,1-2.2-.879,3.065,3.065,0,0,1,0-4.356,3.224,3.224,0,0,1,4.421,0,3.106,3.106,0,0,1,0,4.365A3.051,3.051,0,0,1,555.484,168.583Zm-1.251-1.758a1.76,1.76,0,0,0,2.5,0,1.915,1.915,0,0,0,0-2.594,1.749,1.749,0,0,0-2.5,0,1.915,1.915,0,0,0,0,2.594Z" transform="translate(-435.861 -162.469)" fill="#202256"/>
            <path id="Trazado_622" data-name="Trazado 622" d="M581.135,168.653l-2.367-3.721v3.721H577.49v-5.874h1.449l2.367,3.73v-3.73h1.278v5.874Z" transform="translate(-451.255 -162.659)" fill="#202256"/>
            <path id="Trazado_623" data-name="Trazado 623" d="M603.967,166.569h-2.6v2.084H600.04v-5.874h4.15V164h-2.821V165.4h2.6Z" transform="translate(-465.075 -162.659)" fill="#202256"/>
            <path id="Trazado_624" data-name="Trazado 624" d="M621.127,168.653H619.8v-5.874h1.329Z" transform="translate(-477.184 -162.659)" fill="#202256"/>
            <path id="Trazado_625" data-name="Trazado 625" d="M636.142,168.653l-.335-1.012H633.5l-.334,1.012H631.8l2.075-5.874h1.629l2.067,5.874Zm-.729-2.187-.763-2.3-.763,2.3Z" transform="translate(-484.542 -162.659)" fill="#202256"/>
            <path id="Trazado_626" data-name="Trazado 626" d="M658.949,168.653l-2.367-3.721v3.721H655.3v-5.874h1.449l2.367,3.73v-3.73H660.4v5.874Z" transform="translate(-498.945 -162.659)" fill="#202256"/>
            <path id="Trazado_627" data-name="Trazado 627" d="M682.031,163.894l-2.847,3.567h2.9v1.192h-4.562v-1.1l2.839-3.585h-2.83v-1.192h4.5Z" transform="translate(-512.561 -162.659)" fill="#202256"/>
            <path id="Trazado_628" data-name="Trazado 628" d="M701.928,168.653l-.334-1.012h-2.307l-.334,1.012h-1.363l2.075-5.874h1.63l2.066,5.874Zm-.729-2.187-.763-2.3-.763,2.3Z" transform="translate(-524.86 -162.659)" fill="#202256"/>
          </g>
        </g>
        <g id="Grupo_1483" data-name="Grupo 1483" transform="translate(56.182)">
          <path id="Trazado_629" data-name="Trazado 629" d="M72.062,115.149,83.2,122.575l11.315-7.249.059-15.264Z" transform="translate(-72.062 -100.062)" fill="#202256"/>
          <path id="Trazado_630" data-name="Trazado 630" d="M130.062,115.326l.118,14.91L175.2,100.121l-22.688-.059Z" transform="translate(-107.608 -100.062)" fill="#0096d8"/>
        </g>
      </g>
    </g>
  </g>
</svg>
