<svg xmlns="http://www.w3.org/2000/svg" width="337.117" height="49.736" viewBox="0 0 337.117 49.736">
  <g id="Grupo_1481" data-name="Grupo 1481" transform="translate(60.096 -120.574)">
    <g id="Grupo_1480" data-name="Grupo 1480" transform="translate(-60.096 120.574)">
      <g id="Grupo_1490" data-name="Grupo 1490" transform="translate(0 0)">
        <g id="Grupo_1482" data-name="Grupo 1482" transform="translate(95.542)">
          <g id="Grupo_1478" data-name="Grupo 1478" transform="translate(0.017)">
            <path id="Trazado_599" data-name="Trazado 599" d="M258.2,99.769v2.563a8.315,8.315,0,0,1,2.981-2.119,10.4,10.4,0,0,1,4.361-.887,9.314,9.314,0,0,1,7.1,2.809,10.3,10.3,0,0,1,2.661,7.392v15.523h-6.8v-14.34a5.366,5.366,0,0,0-1.232-3.671,4.288,4.288,0,0,0-3.4-1.4,5.222,5.222,0,0,0-5.568,5.618v13.8h-6.85V99.769Z" transform="translate(-251.448 -90.949)" fill="#202256"/>
            <path id="Trazado_600" data-name="Trazado 600" d="M314.942,99.232a13.311,13.311,0,0,1,9.708,3.819,13.206,13.206,0,0,1,0,18.726,14.25,14.25,0,0,1-19.391.025,13.236,13.236,0,0,1,.025-18.726A13.2,13.2,0,0,1,314.942,99.232Zm4.854,8.2a6.9,6.9,0,0,0-9.708,0,6.872,6.872,0,0,0-1.947,5,7.035,7.035,0,0,0,1.9,5.051,6.287,6.287,0,0,0,4.755,2,6.7,6.7,0,0,0,4.928-2.02,7.33,7.33,0,0,0,.074-10.028Z" transform="translate(-275.224 -90.904)" fill="#202256"/>
            <path id="Trazado_601" data-name="Trazado 601" d="M369.762,125.452H360.6l-8.229-25.28h7.491l5.47,18.775,5.421-18.775h7.243Z" transform="translate(-299.492 -91.352)" fill="#202256"/>
            <path id="Trazado_602" data-name="Trazado 602" d="M421.335,125.228v-1.873a11.709,11.709,0,0,1-7.391,2.217,12.787,12.787,0,0,1-12.763-12.862,12.588,12.588,0,0,1,3.77-9.215,12.237,12.237,0,0,1,8.993-3.794,11.666,11.666,0,0,1,7.391,2.267v-2.02h6.85v25.28Zm-6.8-19.317a6.308,6.308,0,0,0-4.731,2,7,7,0,0,0,0,9.634,6.348,6.348,0,0,0,4.731,1.971,6.688,6.688,0,0,0,4.928-1.971,6.81,6.81,0,0,0-.05-9.634A6.687,6.687,0,0,0,414.536,105.911Z" transform="translate(-322.731 -91.128)" fill="#202256"/>
            <path id="Trazado_603" data-name="Trazado 603" d="M473.743,88.955h-2.365q-3.351,0-3.351,2.957v.246h5.717v6.111h-5.717v19.169h-6.849V98.268h-3.943V92.157h3.943v-.3a7.965,7.965,0,0,1,2.513-6.308q2.514-2.218,7.392-2.217h2.661Z" transform="translate(-349.416 -83.337)" fill="#202256"/>
            <path id="Trazado_604" data-name="Trazado 604" d="M500.108,90.3h-6.849V83.995h6.849Zm0,27.448h-6.849V92.471h6.849Z" transform="translate(-366.566 -83.65)" fill="#202256"/>
            <path id="Trazado_605" data-name="Trazado 605" d="M530.907,125.228v-1.873a11.712,11.712,0,0,1-7.392,2.217,12.786,12.786,0,0,1-12.763-12.862,12.588,12.588,0,0,1,3.77-9.215,12.237,12.237,0,0,1,8.993-3.794,11.669,11.669,0,0,1,7.392,2.267v-2.02h6.85v25.28Zm-6.8-19.317a6.31,6.31,0,0,0-4.731,2,7,7,0,0,0,0,9.634,6.35,6.35,0,0,0,4.731,1.971,6.685,6.685,0,0,0,4.928-1.971,6.811,6.811,0,0,0-.049-9.634A6.689,6.689,0,0,0,524.106,105.911Z" transform="translate(-374.894 -91.128)" fill="#202256"/>
            <path id="Trazado_606" data-name="Trazado 606" d="M574.31,99.769v2.563a8.324,8.324,0,0,1,2.982-2.119,10.394,10.394,0,0,1,4.361-.887,9.314,9.314,0,0,1,7.1,2.809,10.305,10.305,0,0,1,2.661,7.392v15.523h-6.8v-14.34a5.37,5.37,0,0,0-1.232-3.671,4.288,4.288,0,0,0-3.4-1.4,5.223,5.223,0,0,0-5.568,5.618v13.8H567.56V99.769Z" transform="translate(-401.938 -90.949)" fill="#202256"/>
            <path id="Trazado_607" data-name="Trazado 607" d="M638.974,105.593l-11.728,13.9h11.777v5.963h-21.14V120.13l11.728-13.9H617.784v-6.061h21.19Z" transform="translate(-425.848 -91.352)" fill="#202256"/>
            <path id="Trazado_608" data-name="Trazado 608" d="M679.98,125.228v-1.873a11.711,11.711,0,0,1-7.391,2.217,12.787,12.787,0,0,1-12.764-12.862,12.588,12.588,0,0,1,3.77-9.215,12.236,12.236,0,0,1,8.993-3.794,11.667,11.667,0,0,1,7.391,2.267v-2.02h6.85v25.28Zm-6.8-19.317a6.309,6.309,0,0,0-4.73,2,7,7,0,0,0,0,9.634,6.349,6.349,0,0,0,4.73,1.971,6.688,6.688,0,0,0,4.929-1.971,6.812,6.812,0,0,0-.05-9.634A6.689,6.689,0,0,0,673.179,105.911Z" transform="translate(-445.862 -91.128)" fill="#202256"/>
          </g>
          <g id="Grupo_1479" data-name="Grupo 1479" transform="translate(0 41.46)">
            <path id="Trazado_609" data-name="Trazado 609" d="M251.415,170.729v-7.95h5.815V164.4h-4.015v1.5h3.714v1.579h-3.714V169.1h4.027v1.624Z" transform="translate(-251.415 -162.617)" fill="#202256"/>
            <path id="Trazado_610" data-name="Trazado 610" d="M271.572,170.729v-7.95h1.8v6.3h3.691v1.648Z" transform="translate(-261.011 -162.617)" fill="#202256"/>
            <path id="Trazado_611" data-name="Trazado 611" d="M307.205,170.729H305l-2.751-7.95h1.938l1.962,6.012,1.961-6.012h1.857Z" transform="translate(-275.616 -162.617)" fill="#202256"/>
            <path id="Trazado_612" data-name="Trazado 612" d="M327.105,170.729l-.453-1.369h-3.121l-.453,1.369h-1.845l2.808-7.95h2.205l2.8,7.95Zm-.986-2.959-1.033-3.111-1.033,3.111Z" transform="translate(-284.653 -162.617)" fill="#202256"/>
            <path id="Trazado_613" data-name="Trazado 613" d="M344.712,170.729v-7.95h1.8v6.3h3.69v1.648Z" transform="translate(-295.831 -162.617)" fill="#202256"/>
            <path id="Trazado_614" data-name="Trazado 614" d="M366.822,170.744a4.13,4.13,0,0,1-2.982-1.19,4.146,4.146,0,0,1,0-5.9,4.363,4.363,0,0,1,5.982-.005,4.2,4.2,0,0,1,0,5.907A4.128,4.128,0,0,1,366.822,170.744Zm-1.694-2.379a2.382,2.382,0,0,0,3.388,0,2.592,2.592,0,0,0,0-3.511,2.366,2.366,0,0,0-3.388,0,2.591,2.591,0,0,0,0,3.511Z" transform="translate(-304.351 -162.469)" fill="#202256"/>
            <path id="Trazado_615" data-name="Trazado 615" d="M389.505,168.025v2.7h-1.8v-7.95h3.389a2.72,2.72,0,0,1,2,.731,2.567,2.567,0,0,1,.743,1.914,2.486,2.486,0,0,1-.586,1.643,2.661,2.661,0,0,1-1.584.9l2.53,2.762h-2.344Zm1.323-3.6h-1.323v2.123h1.265a1.34,1.34,0,0,0,.917-.3.967.967,0,0,0,.336-.76,1.025,1.025,0,0,0-.308-.772A1.229,1.229,0,0,0,390.828,164.427Z" transform="translate(-316.298 -162.617)" fill="#202256"/>
            <path id="Trazado_616" data-name="Trazado 616" d="M420.755,170.729v-7.95H424a3.957,3.957,0,0,1,2.925,1.126,3.812,3.812,0,0,1,1.125,2.808,3.876,3.876,0,0,1-1.161,2.861,4.047,4.047,0,0,1-2.983,1.155Zm3.156-6.3h-1.358v4.654h1.417a2.172,2.172,0,0,0,1.624-.667,2.306,2.306,0,0,0,.65-1.677,2.232,2.232,0,0,0-.661-1.653A2.277,2.277,0,0,0,423.911,164.427Z" transform="translate(-332.032 -162.617)" fill="#202256"/>
            <path id="Trazado_617" data-name="Trazado 617" d="M443.725,170.729v-7.95h5.814V164.4h-4.015v1.5h3.714v1.579h-3.714V169.1h4.028v1.624Z" transform="translate(-342.967 -162.617)" fill="#202256"/>
            <path id="Trazado_618" data-name="Trazado 618" d="M475.776,170.729v-7.95h1.8v6.3h3.69v1.648Z" transform="translate(-358.226 -162.617)" fill="#202256"/>
            <path id="Trazado_619" data-name="Trazado 619" d="M500.431,170.729l-.453-1.369h-3.122l-.452,1.369h-1.845l2.808-7.95h2.205l2.8,7.95Zm-.987-2.959-1.033-3.111-1.033,3.111Z" transform="translate(-367.168 -162.617)" fill="#202256"/>
            <path id="Trazado_620" data-name="Trazado 620" d="M533.8,164.14a2.246,2.246,0,0,0-1.689.708,2.587,2.587,0,0,0,.012,3.5,2.321,2.321,0,0,0,1.735.708,2.385,2.385,0,0,0,2.171-1.288l1.4.975a3.917,3.917,0,0,1-3.552,2,4.192,4.192,0,0,1-3.058-1.2,3.976,3.976,0,0,1-1.224-2.954,3.935,3.935,0,0,1,1.218-2.93,4.152,4.152,0,0,1,3.018-1.189,3.8,3.8,0,0,1,3.562,1.985l-1.427.987A2.429,2.429,0,0,0,533.8,164.14Z" transform="translate(-383.85 -162.469)" fill="#202256"/>
            <path id="Trazado_621" data-name="Trazado 621" d="M556.584,170.744a4.133,4.133,0,0,1-2.982-1.19,4.148,4.148,0,0,1,0-5.9,4.364,4.364,0,0,1,5.983-.005,4.2,4.2,0,0,1,0,5.907A4.13,4.13,0,0,1,556.584,170.744Zm-1.694-2.379a2.382,2.382,0,0,0,3.388,0,2.592,2.592,0,0,0,0-3.511,2.366,2.366,0,0,0-3.388,0,2.592,2.592,0,0,0,0,3.511Z" transform="translate(-394.69 -162.469)" fill="#202256"/>
            <path id="Trazado_622" data-name="Trazado 622" d="M582.422,170.729l-3.2-5.037v5.037H577.49v-7.95h1.961l3.2,5.048v-5.048h1.729v7.95Z" transform="translate(-406.648 -162.617)" fill="#202256"/>
            <path id="Trazado_623" data-name="Trazado 623" d="M605.355,167.908h-3.517v2.82h-1.8v-7.95h5.617v1.648h-3.818v1.9h3.517Z" transform="translate(-417.384 -162.617)" fill="#202256"/>
            <path id="Trazado_624" data-name="Trazado 624" d="M621.6,170.729h-1.8v-7.95h1.8Z" transform="translate(-426.79 -162.617)" fill="#202256"/>
            <path id="Trazado_625" data-name="Trazado 625" d="M637.675,170.729l-.453-1.369H634.1l-.452,1.369H631.8l2.808-7.95h2.205l2.8,7.95Zm-.987-2.959-1.033-3.111-1.032,3.111Z" transform="translate(-432.505 -162.617)" fill="#202256"/>
            <path id="Trazado_626" data-name="Trazado 626" d="M660.237,170.729l-3.2-5.037v5.037H655.3v-7.95h1.961l3.2,5.048v-5.048H662.2v7.95Z" transform="translate(-443.693 -162.617)" fill="#202256"/>
            <path id="Trazado_627" data-name="Trazado 627" d="M683.625,164.287l-3.853,4.828H683.7v1.613h-6.174v-1.485l3.842-4.851h-3.83v-1.613h6.093Z" transform="translate(-454.27 -162.617)" fill="#202256"/>
            <path id="Trazado_628" data-name="Trazado 628" d="M703.461,170.729l-.452-1.369h-3.122l-.453,1.369h-1.845l2.808-7.95H702.6l2.8,7.95Zm-.986-2.959-1.033-3.111-1.033,3.111Z" transform="translate(-463.823 -162.617)" fill="#202256"/>
          </g>
        </g>
        <g id="Grupo_1483" data-name="Grupo 1483" transform="translate(0 8.899)">
          <path id="Trazado_629" data-name="Trazado 629" d="M72.062,120.48l15.075,10.05,15.314-9.81.08-20.658Z" transform="translate(-72.062 -100.062)" fill="#202256"/>
          <path id="Trazado_630" data-name="Trazado 630" d="M130.062,120.72l.159,20.179,60.934-40.757-30.705-.08Z" transform="translate(-99.674 -100.062)" fill="#0096d8"/>
        </g>
      </g>
    </g>
  </g>
</svg>
