<svg id="Grupo_1583" data-name="Grupo 1583" xmlns="http://www.w3.org/2000/svg" width="23.52" height="23.52" viewBox="0 0 23.52 23.52">
  <path id="Trazado_114" data-name="Trazado 114" d="M387.255,4072.326l1.622-5.88a12.3,12.3,0,1,1,4.38,4.258Z" transform="translate(-387.255 -4048.806)" fill="#fff"/>
  <path id="Trazado_115" data-name="Trazado 115" d="M393.727,4068.164l.365.2a9.634,9.634,0,0,0,5.069,1.5,9.832,9.832,0,0,0,9.733-9.814,9.733,9.733,0,0,0-19.465,0,9.827,9.827,0,0,0,1.5,5.232l.243.364-.932,3.407Z" transform="translate(-387.255 -4048.806)" fill="#55cd6c"/>
  <path id="Trazado_116" data-name="Trazado 116" d="M395.852,4055.051l-.77-.041a.922.922,0,0,0-.649.244A3.361,3.361,0,0,0,393.3,4057a5.281,5.281,0,0,0,1.217,4.137,12.288,12.288,0,0,0,6.651,4.826,3.3,3.3,0,0,0,2.757-.325,2.4,2.4,0,0,0,1.055-1.541l.121-.568a.406.406,0,0,0-.2-.446l-2.554-1.176a.388.388,0,0,0-.487.122l-1.014,1.3a.316.316,0,0,1-.324.081,7.884,7.884,0,0,1-4.258-3.65.3.3,0,0,1,.04-.324l.974-1.095a.5.5,0,0,0,.081-.406l-1.176-2.636a.355.355,0,0,0-.325-.243" transform="translate(-387.255 -4048.806)" fill="#fff"/>
</svg>
