<svg id="Grupo_1331" data-name="Grupo 1331" xmlns="http://www.w3.org/2000/svg" width="15.01" height="15" viewBox="0 0 15.01 15">
  <path id="Trazado_476" data-name="Trazado 476" d="M-1562.94-109.347a3.6,3.6,0,0,1,.374.125,1.7,1.7,0,0,1,1.06,1.6c.021.911.006,1.824,0,2.736a.506.506,0,0,1-.3.508.451.451,0,0,1-.494-.072.509.509,0,0,1-.181-.428q0-1.324,0-2.648a.786.786,0,0,0-.867-.873c-1.25,0-2.5,0-3.756.02l.839.28a1.311,1.311,0,0,1,1.009,1.4q0,4.638,0,9.275c0,.242,0,.242.249.242h1.656a.786.786,0,0,0,.869-.871q0-1.3,0-2.6a1.257,1.257,0,0,1,0-.161.492.492,0,0,1,.468-.427.486.486,0,0,1,.484.388.93.93,0,0,1,.02.188c0,.892,0,1.785,0,2.677a1.742,1.742,0,0,1-1.454,1.747,1.492,1.492,0,0,1-.277.019c-.615,0-1.231,0-1.847,0-.136,0-.179.041-.176.175a2.927,2.927,0,0,1-.031.7,1.255,1.255,0,0,1-1.6.951c-1.279-.408-2.551-.838-3.822-1.27a1.267,1.267,0,0,1-.819-.943v-11.733a1.339,1.339,0,0,1,1-.995Zm-3.291,8.112q0-2.765,0-5.53c0-.23-.058-.32-.259-.388q-1.813-.605-3.627-1.207a.374.374,0,0,0-.229-.022c-.165.047-.235.161-.235.4q0,5.5,0,11c0,.264.064.35.32.435l2.043.679c.519.172,1.037.349,1.557.516a.3.3,0,0,0,.429-.316c0-.049,0-.1,0-.146Q-1566.231-98.521-1566.231-101.235Z" transform="translate(1571.53 109.347)" fill="#b7b7b7"/>
  <path id="Trazado_477" data-name="Trazado 477" d="M-1287.879,20.856a.7.7,0,0,1-.154.229l-2.27,2.263a.539.539,0,0,1-.327.178.476.476,0,0,1-.49-.249.49.49,0,0,1,.064-.547c.031-.037.067-.071.1-.106l1.295-1.293c.037-.037.072-.075.112-.118a.285.285,0,0,0-.182-.025q-2.271,0-4.542,0a.475.475,0,0,1-.462-.662.474.474,0,0,1,.478-.295c1.1,0,2.207,0,3.311,0h1.385c-.006-.07-.056-.1-.091-.133q-.667-.668-1.336-1.334a.533.533,0,0,1-.185-.368.452.452,0,0,1,.259-.454.475.475,0,0,1,.524.052,1.188,1.188,0,0,1,.118.109l2.229,2.222a.732.732,0,0,1,.164.24Z" transform="translate(1302.889 -14.155)" fill="#b7b7b7"/>
</svg>
