<svg id="Grupo_22842" data-name="Grupo 22842" xmlns="http://www.w3.org/2000/svg" xmlns:xlink="http://www.w3.org/1999/xlink" width="287.673" height="31.944" viewBox="0 0 287.673 31.944">
  <defs>
    <linearGradient id="linear-gradient" x1="-0.47" y1="-0.157" x2="1.566" y2="1.128" gradientUnits="objectBoundingBox">
      <stop offset="0" stop-color="#2d5ca8"/>
      <stop offset="0.393" stop-color="#244f8e"/>
      <stop offset="1" stop-color="#0d2d4d"/>
    </linearGradient>
  </defs>
  <g id="Grupo_22840" data-name="Grupo 22840">
    <g id="Grupo_22841" data-name="Grupo 22841" transform="translate(157.248 4.42)">
      <rect id="Rectángulo_14116" data-name="Rectángulo 14116" width="63.839" height="22.062" rx="4" transform="translate(66.586)" fill="#ffce00"/>
      <path id="Trazado_765" data-name="Trazado 765" d="M171.2,247.645a6.367,6.367,0,0,1,6.45,7.9,10.05,10.05,0,0,1-9.467,7.9,6.368,6.368,0,0,1-6.455-7.9,10.055,10.055,0,0,1,9.472-7.9Zm33.752,5.541.017,4.126a2.291,2.291,0,0,0,.163.78c.558,1.218,2.487,1.107,3.611.378l-.5-1.038a1.945,1.945,0,0,1-1.329.283c-.463-.137-.429-.686-.429-1.227v-3.336l3.114.009,2.5,5.713a4.117,4.117,0,0,1-.626,1.4c-.866,1.218-1.672.7-2.367.549l-.343,1.235a3.163,3.163,0,0,0,3.474-.523,8.8,8.8,0,0,0,1.51-2.959l2.4-6.639h-1.6l-1.69,5.1c-.171-.189-1.475-3.457-1.715-4.014a1.673,1.673,0,0,0-1.8-1.09c-.944-.009-1.9,0-2.865,0v-2.05a11.532,11.532,0,0,0-1.535.489v1.535l-1.235.017.009,1.227Zm-17.5-1.252.017-1.527a2.107,2.107,0,0,1,1.141-1.69,2.972,2.972,0,0,1,2.376.077L190.711,250c-1.741-.386-1.733-.06-1.733,1.93h1.9l-.489,1.209-1.407.009v5.7a7.454,7.454,0,0,1-1.518-.017v-5.67l-.763-.017-.472-1.2Zm10.241,3.646c.094,4.074,4.52,3.851,5.713,2.77a5.167,5.167,0,0,0-.446-1.038,2.871,2.871,0,0,1-2.6.223c-1.535-.755-1.424-3.611.129-4.323a2.716,2.716,0,0,1,2.058.017c.223.1.386.215.566.292V252.2a4.008,4.008,0,0,0-2.719-.343,3.6,3.6,0,0,0-2.7,3.723Zm-16.142-.909c.112-.926.463-1.69,1.45-1.707.952-.017,1.407.772,1.45,1.724Zm4.254,3.68-.429-1.012a9.308,9.308,0,0,1-1.175.4,2.02,2.02,0,0,1-2.625-1.956h4.435c0-1.553-.274-3.336-2.007-3.877a3.138,3.138,0,0,0-2.436.232c-2.4,1.441-2.281,6.922,1.93,6.87a3.947,3.947,0,0,0,2.307-.661Zm6.639-3.662c.077-.935.506-1.716,1.467-1.724.926,0,1.4.806,1.407,1.724Zm-1.544.995c.163,2.565,2.153,3.774,4.6,3.2a9.524,9.524,0,0,0,1.2-.472l-.429-1.081a3.491,3.491,0,0,1-2.53.335,1.924,1.924,0,0,1-1.278-1.87l4.443-.009c0-2.024-.609-4.005-2.942-4.023-2.282-.026-3.182,1.9-3.062,3.92Z" transform="translate(-90.737 -244.512)" fill="#040505" fill-rule="evenodd"/>
      <path id="Trazado_766" data-name="Trazado 766" d="M185.4,260.728a5.814,5.814,0,0,1,3.686,6.875,9.274,9.274,0,0,1-7.875,7.2c-.3-.01-.3-.177-.311-.426.014-.516.033-1.038.048-1.554,0-.077-.024-.1-.057-.11a5.831,5.831,0,0,1-1.133-.239,7,7,0,0,1-1.214-.65c-.186-.091-.163-.521-.158-.688.034-.306.258-1.018.622-1.052.435-.024.641.206,1.071.416a3.246,3.246,0,0,0,2.6.2.659.659,0,0,0,.292-.932c-.306-.641-1.774-1.167-2.438-1.487a3.326,3.326,0,0,1-2.2-3.7,2.992,2.992,0,0,1,2.529-2.295v-.579a8.434,8.434,0,0,0-3.576,2.247,7.7,7.7,0,0,0-2.372,5.489A5.579,5.579,0,0,0,178,274.412a5.822,5.822,0,0,1-3.5-6.808,9.248,9.248,0,0,1,8.176-7.224c.153.091.163.105.244.311-.034.483-.062.966-.1,1.449a4.392,4.392,0,0,1,2.056.861c.019,1.109-.813,1.573-1.129,1.406a11.476,11.476,0,0,0-1.516-.464,1.6,1.6,0,0,0-.952.11c-.373.177-.55.44-.373.851a1.73,1.73,0,0,0,.684.679c.8.43,1.6.865,2.4,1.3a3.635,3.635,0,0,1,1.5,1.5,3.178,3.178,0,0,1,.148,1.836,2.968,2.968,0,0,1-1.439,1.87,4.082,4.082,0,0,1-1.234.473c-.014.258-.024.512-.038.77a.134.134,0,0,0,.105,0,9,9,0,0,0,2.472-1.363,8.493,8.493,0,0,0,2.434-3.012,7.339,7.339,0,0,0,.717-2.281,5.449,5.449,0,0,0-3.247-5.938Z" transform="translate(-102.834 -256.572)" fill="#ffce00" fill-rule="evenodd"/>
    </g>
    <g id="Grupo_1566" data-name="Grupo 1566" transform="translate(154.484 5.91)">
      <path id="Trazado_644" data-name="Trazado 644" d="M-474.856,122.023q0,3.449,0,6.9a5.488,5.488,0,0,1-.119.994,6.508,6.508,0,0,1-.379,1.289,7.417,7.417,0,0,1-.625,1.186,7.047,7.047,0,0,1-1.208,1.387,6.423,6.423,0,0,1-1.345.923,6.508,6.508,0,0,1-1.086.456,7.722,7.722,0,0,1-.934.226,5.127,5.127,0,0,1-.82.078c-.1,0-.173.069-.277.054-.414-.058-.833-.072-1.247-.143a6.667,6.667,0,0,1-1.847-.6,6.792,6.792,0,0,1-1.287-.834,6.858,6.858,0,0,1-1.368-1.518,6.428,6.428,0,0,1-.558-1.022,6.114,6.114,0,0,1-.4-1.2.794.794,0,0,1,.764-.964c.528-.019,1.058-.018,1.586,0a.8.8,0,0,1,.732.588,3.357,3.357,0,0,0,1.134,1.714,3.5,3.5,0,0,0,1.252.7,3.768,3.768,0,0,0,1.721.15,3.749,3.749,0,0,0,1.667-.67,3.779,3.779,0,0,0,1.182-1.386,4.271,4.271,0,0,0,.393-1.294,2.941,2.941,0,0,0,.013-.441q0-.821,0-1.642c0-.044.021-.1-.034-.123s-.074.025-.107.046a6.607,6.607,0,0,1-1.933.837,6.225,6.225,0,0,1-1.177.193,8.9,8.9,0,0,1-1.292-.015,5.765,5.765,0,0,1-.972-.179,6.417,6.417,0,0,1-.949-.319,7.04,7.04,0,0,1-1.435-.832,6.842,6.842,0,0,1-1.841-2.091,6.994,6.994,0,0,1-.81-2.3,7.344,7.344,0,0,1-.071-1.469,6.1,6.1,0,0,1,.245-1.472,6.738,6.738,0,0,1,1.074-2.2,7.053,7.053,0,0,1,1.282-1.319,6.83,6.83,0,0,1,1.416-.862,6.269,6.269,0,0,1,1.046-.365c.316-.082.638-.122.954-.192a6.424,6.424,0,0,1,.913-.048c.05,0,.1,0,.152,0a4.785,4.785,0,0,1,1.055.134,6.075,6.075,0,0,1,.955.253,7.037,7.037,0,0,1,1.372.66c.041.025.081.077.134.044s.026-.085.023-.128a.855.855,0,0,1,.4-.834.717.717,0,0,1,.406-.133q.738.012,1.476,0a.924.924,0,0,1,.692.492,1.211,1.211,0,0,1,.078.416Q-474.858,118.588-474.856,122.023Zm-6.845,2.87a3.8,3.8,0,0,0,3.8-3.809,3.787,3.787,0,0,0-3.859-3.794,3.781,3.781,0,0,0-3.749,3.794A3.794,3.794,0,0,0-481.7,124.893Z" transform="translate(488.537 -114.222)" fill="#84a933"/>
      <path id="Trazado_645" data-name="Trazado 645" d="M-31.207,121.013q0,2.932,0,5.864a.913.913,0,0,1-.418.834.686.686,0,0,1-.375.117c-.5,0-1,0-1.5,0a.807.807,0,0,1-.76-.763c0-.078,0-.156,0-.235s-.048-.106-.116-.059a5.789,5.789,0,0,1-1.413.7,6.574,6.574,0,0,1-1.714.364,8.464,8.464,0,0,1-1.32-.013,5.979,5.979,0,0,1-1.022-.2,6.639,6.639,0,0,1-1.008-.357,6.907,6.907,0,0,1-1.646-1.036,6.8,6.8,0,0,1-1.588-1.954,6.72,6.72,0,0,1-.617-1.6,6.76,6.76,0,0,1-.2-1.948,6.623,6.623,0,0,1,.188-1.317,7.373,7.373,0,0,1,.346-1.053,6.734,6.734,0,0,1,.976-1.633,6.872,6.872,0,0,1,1.459-1.35,6.843,6.843,0,0,1,1.546-.8,8.856,8.856,0,0,1,1.478-.358,6.952,6.952,0,0,1,1.5-.035,4.8,4.8,0,0,1,.629.1,6.242,6.242,0,0,1,1.083.3,6.074,6.074,0,0,1,1.32.663c.026.018.047.053.082.04s.031-.061.033-.1a1.611,1.611,0,0,1,.032-.451.841.841,0,0,1,.8-.579c.474,0,.948,0,1.421,0a.84.84,0,0,1,.725.521,1.4,1.4,0,0,1,.084.471Q-31.208,118.088-31.207,121.013Zm-3.058.012a3.807,3.807,0,0,0-3.865-3.812,3.785,3.785,0,0,0-3.74,3.642,3.8,3.8,0,0,0,3.645,3.958A3.817,3.817,0,0,0-34.266,121.025Z" transform="translate(59.13 -114.145)" fill="#1b4b2c"/>
      <path id="Trazado_646" data-name="Trazado 646" d="M856.643,120.466V126.4a.847.847,0,0,1-.583.87.457.457,0,0,1-.176.023c-.51,0-1.021,0-1.531,0a.808.808,0,0,1-.714-.571,1.371,1.371,0,0,1-.05-.394c0-.089-.019-.134-.122-.07a6.972,6.972,0,0,1-1.288.636,6.491,6.491,0,0,1-1.871.4,7.291,7.291,0,0,1-1.672-.074,6.821,6.821,0,0,1-5.129-9.429,6.862,6.862,0,0,1,1.712-2.4,6.757,6.757,0,0,1,1.864-1.2,8.02,8.02,0,0,1,1.558-.473,5.632,5.632,0,0,1,1.831-.074,6.78,6.78,0,0,1,2.379.7,5.154,5.154,0,0,1,.584.332c.037.026.08.06.125.036s.028-.083.027-.126a.883.883,0,0,1,.417-.843.729.729,0,0,1,.4-.125c.5.007.993-.009,1.49.008a.784.784,0,0,1,.645.421.9.9,0,0,1,.108.488Q856.642,117.507,856.643,120.466Zm-6.851,3.815a3.8,3.8,0,1,0-3.79-3.662A3.808,3.808,0,0,0,849.791,124.281Z" transform="translate(-800.293 -113.61)" fill="#84a933"/>
      <path id="Trazado_647" data-name="Trazado 647" d="M398.828,120.942q0-2.959,0-5.918a.859.859,0,0,1,.542-.861.7.7,0,0,1,.286-.062c.46,0,.921.016,1.379-.006a.89.89,0,0,1,.852.861c-.008.086-.05.21.036.256.065.034.132-.075.2-.115a8.343,8.343,0,0,1,1.047-.515,7.1,7.1,0,0,1,.926-.3c.238-.06.487-.086.729-.132a6.638,6.638,0,0,1,1.506-.036,4.628,4.628,0,0,1,.642.108,5.555,5.555,0,0,1,.85.217,6.245,6.245,0,0,1,1.055.453,7.811,7.811,0,0,1,1.023.667,7.248,7.248,0,0,1,1.4,1.488,6.419,6.419,0,0,1,.74,1.376,6.791,6.791,0,0,1,.444,1.891c.038.472.045.943.045,1.416q0,2.552,0,5.1a.879.879,0,0,1-.383.795.683.683,0,0,1-.384.129c-.483,0-.966-.016-1.449,0a.85.85,0,0,1-.84-.848c.008-2,.012-4,0-6a3.664,3.664,0,0,0-.872-2.378,3.784,3.784,0,0,0-5.763-.105,3.631,3.631,0,0,0-.719,1.21,4.029,4.029,0,0,0-.239,1.385c0,1.95,0,3.9.007,5.849a.911.911,0,0,1-.587.859.621.621,0,0,1-.189.025h-1.49a.81.81,0,0,1-.733-.549,1.378,1.378,0,0,1-.064-.446Q398.829,123.852,398.828,120.942Z" transform="translate(-370.398 -114.076)" fill="#84a933"/>
      <path id="Trazado_648" data-name="Trazado 648" d="M1053.271,560.985v.938c0,.032,0,.064,0,.1a.239.239,0,0,1-.188.241c-.119.03-.194-.061-.234-.152-.046-.106-.065-.1-.146-.024a.7.7,0,0,1-1.117-.268,1.2,1.2,0,0,1,0-1.024.734.734,0,0,1,1.132-.224c.024.021.04.056.078.034s.032-.053.032-.086c0-.179,0-.359,0-.538a.223.223,0,0,1,.22-.246c.136,0,.216.086.217.246C1053.273,560.314,1053.271,560.65,1053.271,560.985Zm-.49.569a.874.874,0,0,0,0-.462.584.584,0,0,0-.051-.127.379.379,0,0,0-.647-.084.731.731,0,0,0-.04.831.387.387,0,0,0,.659.008A.442.442,0,0,0,1052.781,561.554Z" transform="translate(-1002.137 -545.44)" fill="#1b4b2c"/>
      <path id="Trazado_649" data-name="Trazado 649" d="M963.86,580.694a1.943,1.943,0,0,0,.069.653.611.611,0,0,1,.017.164c0,.095-.065.138-.137.171a.168.168,0,0,1-.191-.031c-.066-.054-.1-.168-.186-.165s-.139.083-.214.113a.873.873,0,0,1-.705.044.531.531,0,0,1-.324-.537.54.54,0,0,1,.4-.421c.239-.064.481-.112.722-.161.058-.012.1-.037.094-.1a.231.231,0,0,0-.117-.218.462.462,0,0,0-.607.153c-.068.093-.126.213-.284.134a.193.193,0,0,1-.107-.278.54.54,0,0,1,.3-.3,1.206,1.206,0,0,1,1,0,.45.45,0,0,1,.266.4C963.868,580.445,963.86,580.57,963.86,580.694Zm-.434.243c0-.15-.021-.17-.167-.127a2.239,2.239,0,0,1-.307.071c-.189.028-.3.142-.292.274a.289.289,0,0,0,.292.238A.444.444,0,0,0,963.425,580.937Z" transform="translate(-915.71 -564.874)" fill="#1b4b2c"/>
      <path id="Trazado_650" data-name="Trazado 650" d="M795.032,581.178c-.129,0-.258,0-.386,0s-.162.048-.111.171a.448.448,0,0,0,.731.175c.067-.055.14-.1.207-.159a.142.142,0,0,1,.19,0,.151.151,0,0,1,.06.181.564.564,0,0,1-.383.365,1.025,1.025,0,0,1-.934-.07.83.83,0,0,1-.389-.589,1.019,1.019,0,0,1,.176-.81.948.948,0,0,1,.916-.315.824.824,0,0,1,.59.462.583.583,0,0,1,.042.427c-.037.131-.176.152-.3.159C795.309,581.185,795.17,581.178,795.032,581.178Zm-.143-.27c.092,0,.183,0,.274,0,.126,0,.157-.046.129-.164a.444.444,0,0,0-.4-.319.482.482,0,0,0-.391.372c-.008.074.019.113.1.112C794.7,580.906,794.794,580.908,794.89,580.908Z" transform="translate(-752.909 -565.161)" fill="#1b4b2c"/>
      <path id="Trazado_651" data-name="Trazado 651" d="M1118.764,581.1h-.427c-.027,0-.072,0-.09.023s.007.089.021.119a.855.855,0,0,0,.113.19.4.4,0,0,0,.178.127.444.444,0,0,0,.332-.047,1.191,1.191,0,0,0,.246-.178.245.245,0,0,1,.177-.088.182.182,0,0,1,.093.047.167.167,0,0,1,.057.08.18.18,0,0,1-.013.105.7.7,0,0,1-.581.417.932.932,0,0,1-.93-.31.922.922,0,0,1-.21-.607,1.085,1.085,0,0,1,.261-.7.922.922,0,0,1,.659-.253.763.763,0,0,1,.825.779c-.005.2-.087.286-.3.294C1119.04,581.1,1118.9,581.1,1118.764,581.1Zm-.157-.271c.106,0,.211,0,.316,0,.064,0,.1-.017.109-.091a.409.409,0,0,0-.475-.387.5.5,0,0,0-.331.37c-.02.074.007.105.078.106C1118.405,580.828,1118.506,580.827,1118.607,580.827Z" transform="translate(-1066.267 -565.081)" fill="#1b4b2c"/>
      <path id="Trazado_652" data-name="Trazado 652" d="M731.828,581.074a.777.777,0,0,0,.058.31.409.409,0,0,0,.672.1,1.909,1.909,0,0,0,.116-.16c.074-.1.178-.159.294-.085a.2.2,0,0,1,.086.25.707.707,0,0,1-.515.444.978.978,0,0,1-.78-.072.913.913,0,0,1-.419-.972.882.882,0,0,1,.5-.707.939.939,0,0,1,1.14.284.309.309,0,0,1,.02.3c-.044.089-.134.086-.218.077a.215.215,0,0,1-.137-.093,1.294,1.294,0,0,0-.152-.166.4.4,0,0,0-.214-.1.409.409,0,0,0-.353.165.534.534,0,0,0-.093.269A1.478,1.478,0,0,0,731.828,581.074Z" transform="translate(-692.243 -565.158)" fill="#1b4b2c"/>
      <path id="Trazado_653" data-name="Trazado 653" d="M900.987,581.981h-.028a.949.949,0,0,1-.667-.286.921.921,0,0,1-.226-.528,1.142,1.142,0,0,1,.026-.372.867.867,0,0,1,.5-.617.9.9,0,0,1,1.173.386.209.209,0,0,1-.374.183.46.46,0,0,0-.5-.249.479.479,0,0,0-.333.456.683.683,0,0,0,.164.559.4.4,0,0,0,.579-.048c.038-.062.091-.115.135-.173a.183.183,0,0,1,.255-.057c.2.117.079.371-.046.5A.918.918,0,0,1,900.987,581.981Z" transform="translate(-855.574 -565.152)" fill="#1b4b2c"/>
      <path id="Trazado_654" data-name="Trazado 654" d="M1205.421,561.881c0,.084-.034.212.074.247a.839.839,0,0,0,.142.008.163.163,0,0,1,.04.311c-.069.032-.16-.01-.219.05a.176.176,0,0,0-.037.116c-.006.121,0,.242,0,.362s0,.25,0,.375c0,.186.064.238.245.2.109-.021.211-.012.246.11s-.043.191-.144.232a.72.72,0,0,1-.612-.012.371.371,0,0,1-.2-.353c-.007-.312,0-.624,0-.936a.153.153,0,0,0-.022-.1.125.125,0,0,0-.1-.035c-.1,0-.133-.081-.133-.161a.163.163,0,0,1,.066-.145c.049-.029.115,0,.16-.041a.145.145,0,0,0,.034-.124c-.007-.165-.035-.492.2-.513a.265.265,0,0,1,.257.239,1.22,1.22,0,0,1,0,.165Z" transform="translate(-1150.449 -547.128)" fill="#1b4b2c"/>
      <path id="Trazado_655" data-name="Trazado 655" d="M858.62,580.824q0-.207,0-.414c0-.183,0-.484.239-.518a.2.2,0,0,1,.2.117c.045.094.081.105.151.013a.333.333,0,0,1,.325-.132.446.446,0,0,1,.376.262c.039.093-.1.243-.213.23a.6.6,0,0,1-.144-.044.262.262,0,0,0-.363.164,1.249,1.249,0,0,0-.066.391c0,.218.089.655-.089.82a.216.216,0,0,1-.315-.018.405.405,0,0,1-.073-.146A2.444,2.444,0,0,1,858.62,580.824Z" transform="translate(-815.447 -564.947)" fill="#1b4b2c"/>
      <path id="Trazado_656" data-name="Trazado 656" d="M1246.964,581.339c0,.211,0,.423,0,.634a.283.283,0,0,1-.021.134c-.054.106-.131.192-.255.172a.245.245,0,0,1-.206-.245c-.009-.464-.008-.928,0-1.392a.252.252,0,0,1,.237-.227.262.262,0,0,1,.248.248C1246.967,580.888,1246.964,581.113,1246.964,581.339Z" transform="translate(-1190.89 -565.46)" fill="#1b4b2c"/>
      <path id="Trazado_657" data-name="Trazado 657" d="M1246.746,560.6a.219.219,0,0,1,.239.224.245.245,0,0,1-.488.007A.225.225,0,0,1,1246.746,560.6Z" transform="translate(-1190.911 -546.284)" fill="#1b4b2c"/>
      <path id="Trazado_658" data-name="Trazado 658" d="M79.559,330.706a3.033,3.033,0,0,1-2.867-2.1,1.037,1.037,0,0,1-.071-.334.351.351,0,0,1,.294-.4.329.329,0,0,1,.411.272,1.879,1.879,0,0,0,1,1.15,2.348,2.348,0,0,0,1.612.307,2.444,2.444,0,0,0,1.734-1.119,1.387,1.387,0,0,0,.138-.341.375.375,0,0,1,.594-.2.316.316,0,0,1,.114.32,2.694,2.694,0,0,1-.546,1.242,2.952,2.952,0,0,1-1.333,1.008A2.629,2.629,0,0,1,79.559,330.706Z" transform="translate(-58.515 -320.995)" fill="#84a933"/>
    </g>
    <g id="Mastercard-logo" transform="translate(104.447 2.006)">
      <path id="XMLID_1775_" d="M54.667,663.563v-1.909a1.12,1.12,0,0,0-1.208-1.208,1.252,1.252,0,0,0-1.082.541,1.117,1.117,0,0,0-1.019-.541,1.025,1.025,0,0,0-.89.445v-.382H49.8v3.054h.667v-1.686c0-.541.285-.8.73-.8s.667.285.667.8v1.686h.667v-1.686a.7.7,0,0,1,.73-.8c.445,0,.667.285.667.8v1.686Zm9.9-3.054H63.481v-.923h-.667v.923h-.6v.6h.6v1.4c0,.7.285,1.112,1.049,1.112a1.794,1.794,0,0,0,.827-.222l-.193-.575a1.067,1.067,0,0,1-.575.159c-.319,0-.445-.193-.445-.508v-1.368H64.56v-.6Zm5.664-.067a.9.9,0,0,0-.8.445V660.5h-.667v3.054h.667v-1.72c0-.508.222-.8.638-.8a2.04,2.04,0,0,1,.415.063l.193-.638a2.646,2.646,0,0,0-.449-.026Zm-8.559.319a2.189,2.189,0,0,0-1.242-.319c-.764,0-1.271.382-1.271.986,0,.508.382.8,1.049.89l.319.033c.348.063.541.159.541.319,0,.223-.256.382-.7.382a1.759,1.759,0,0,1-1.019-.319l-.319.508a2.236,2.236,0,0,0,1.3.382c.89,0,1.4-.415,1.4-.986,0-.541-.415-.826-1.049-.923l-.319-.033c-.285-.033-.508-.1-.508-.285,0-.222.222-.348.575-.348a2.3,2.3,0,0,1,.956.256l.282-.541Zm17.751-.319a.9.9,0,0,0-.8.445V660.5h-.667v3.054h.667v-1.72c0-.508.222-.8.638-.8a2.04,2.04,0,0,1,.415.063l.193-.63a2.035,2.035,0,0,0-.449-.033Zm-8.525,1.594a1.529,1.529,0,0,0,1.624,1.59,1.6,1.6,0,0,0,1.082-.348l-.319-.541a1.275,1.275,0,0,1-.8.285.9.9,0,0,1-.923-.986.936.936,0,0,1,.923-.986,1.3,1.3,0,0,1,.8.285l.319-.541a1.58,1.58,0,0,0-1.082-.348,1.527,1.527,0,0,0-1.624,1.59Zm6.172,0v-1.527H76.4v.382a1.152,1.152,0,0,0-.956-.445,1.591,1.591,0,0,0,0,3.18,1.079,1.079,0,0,0,.956-.445v.382h.667v-1.527Zm-2.45,0a.925.925,0,1,1,1.846,0,.925.925,0,1,1-1.846,0Zm-7.984-1.594a1.591,1.591,0,0,0,.033,3.18,1.939,1.939,0,0,0,1.242-.415l-.319-.478a1.516,1.516,0,0,1-.89.319.86.86,0,0,1-.923-.73h2.257v-.256a1.408,1.408,0,0,0-1.4-1.62Zm0,.574a.743.743,0,0,1,.764.73h-1.59a.8.8,0,0,1,.827-.73Zm16.576,1.019V659.3h-.667v1.59a1.152,1.152,0,0,0-.956-.445,1.591,1.591,0,0,0,0,3.18,1.079,1.079,0,0,0,.956-.445v.382h.667v-1.527Zm-2.45,0a.925.925,0,1,1,1.846,0,.925.925,0,1,1-1.846,0Zm-22.336,0v-1.527h-.667v.382a1.152,1.152,0,0,0-.956-.445,1.591,1.591,0,0,0,0,3.18,1.079,1.079,0,0,0,.956-.445v.382h.667v-1.527Zm-2.48,0a.925.925,0,1,1,1.846,0,.925.925,0,1,1-1.846,0Z" transform="translate(-47.954 -634.862)"/>
      <g id="Grupo_1565" data-name="Grupo 1565">
        <rect id="rect19" width="10.023" height="18.007" transform="translate(13.492 2.45)" fill="#ff5a00"/>
        <path id="XMLID_330_" d="M14.159,11.454a11.486,11.486,0,0,1,4.359-9,11.45,11.45,0,1,0-7.065,20.457,11.392,11.392,0,0,0,7.065-2.45A11.43,11.43,0,0,1,14.159,11.454Z" fill="#eb001b"/>
        <path id="path22" d="M518.118,11.454a11.442,11.442,0,0,1-18.518,9,11.478,11.478,0,0,0,0-18.007,11.442,11.442,0,0,1,18.518,9Z" transform="translate(-481.082)" fill="#f79e1b"/>
      </g>
    </g>
    <path id="path3789" d="M30.788.5c-3.3,0-6.252,1.711-6.252,4.873,0,3.626,5.233,3.877,5.233,5.7,0,.767-.879,1.454-2.38,1.454a7.9,7.9,0,0,1-3.723-.959l-.681,3.191a11.621,11.621,0,0,0,4.27.81c3.61,0,6.451-1.8,6.451-5.011,0-3.832-5.255-4.075-5.255-5.765,0-.6.722-1.259,2.219-1.259a7.541,7.541,0,0,1,3.067.7L34.4,1.147A9.981,9.981,0,0,0,30.788.5ZM.58.733.5,1.2a15.529,15.529,0,0,1,2.64.761c1.611.582,1.726.92,2,1.971l2.956,11.4h3.963L18.162.733H14.208l-3.923,9.923-1.6-8.411A1.73,1.73,0,0,0,6.883.733H.58Zm19.172,0-3.1,14.595h3.77L23.511.733H19.752Zm21.029,0A1.779,1.779,0,0,0,39.036,2.07L33.512,15.327h3.954l.765-2.21h4.817l.465,2.21H47L43.958.733H40.78Zm.514,3.943,1.172,5.477h-3.14l1.968-5.477Z" transform="translate(44.445 8.524)" fill="#1434cb"/>
    <g id="pse-seeklogo.com">
      <ellipse id="Circle_1_" cx="15.973" cy="15.972" rx="15.973" ry="15.972" transform="translate(0)" fill="url(#linear-gradient)"/>
      <g id="PSE_1_" transform="translate(6.765 12.015)">
        <path id="Trazado_632" data-name="Trazado 632" d="M88.01,71H84.229a.249.249,0,0,0-.051,0,2.172,2.172,0,0,0-1.73,2.089,1.644,1.644,0,0,0,1.276,1.682h2.7c.119,0,.855.168.807,1.452s-1.153,1.463-1.312,1.634H81.738a.258.258,0,0,0,0,.514h4.2c.014,0,.027-.063.04-.065A2.164,2.164,0,0,0,87.7,76.211c.069-1.819-1.247-1.934-1.26-1.935l-2.66-.008a1.1,1.1,0,0,1-.857-1.173c0-.006,0,.009,0,0a1.609,1.609,0,0,1,1.331-1.588H88.01a.258.258,0,0,0,0-.514Z" transform="translate(-74.495 -70.968)" fill="#fff"/>
        <path id="Trazado_633" data-name="Trazado 633" d="M126.578,70.839c-.022-.006-.044.027-.067.027h-2.825c-1.279,0-1.857,1.481-1.88,1.546,0,.01-.007,0-.009.014A31.3,31.3,0,0,0,121.1,76.7c.022.967,1.007,1.319,1.525,1.374.009,0,.017-.007.026-.007h3.928a.258.258,0,0,0,0-.514h-3.913c-.123,0-1.065-.144-1.082-.892a12.662,12.662,0,0,1,.243-1.948l5.466-.041a.239.239,0,0,0,.236-.2,17.232,17.232,0,0,0,.256-2.3C127.786,71.181,126.628,70.854,126.578,70.839Zm.509,3.356-5.17.043c.159-.842.32-1.533.348-1.657.055-.138.529-1.2,1.422-1.2h2.787c.151,0,.83.267.83.832A14.89,14.89,0,0,1,127.087,74.195Z" transform="translate(-107.306 -70.839)" fill="#fff"/>
        <path id="Trazado_634" data-name="Trazado 634" d="M47.879,72.448C48.021,71.483,46.8,71,46.574,71h0c-.984,0-2.475.034-2.63.028-.021,0-.042.011-.064.015a2.759,2.759,0,0,0-1.7,1.608l0,0a3.732,3.732,0,0,0-.085.393c-.043.227-.1.552-.175.94-.143.777-.332,1.813-.521,2.848-.377,2.071-.752,4.142-.752,4.142a.235.235,0,1,0,.462.084c.158-.875.418-2.309.678-3.739a2.216,2.216,0,0,0,1.415.859.141.141,0,0,0,.029,0l2.416-.069a.226.226,0,0,0,.061-.01,2.414,2.414,0,0,0,1.505-1.577.257.257,0,0,0,.006-.026l.656-4.017C47.877,72.478,47.878,72.456,47.879,72.448Zm-.469-.009-.651,3.974A1.97,1.97,0,0,1,45.6,77.647l-2.366.068a1.881,1.881,0,0,1-1.326-1.062c.348-1.912.668-3.655.71-3.84a2.366,2.366,0,0,1,1.327-1.29c.09.005.213.006.384.006h.914l1.274,0C46.8,71.522,47.477,72,47.41,72.439Z" transform="translate(-40.644 -70.972)" fill="#fff"/>
      </g>
      <g id="Figures" transform="translate(0 8.247)">
        <ellipse id="Elipse_45" data-name="Elipse 45" cx="0.673" cy="0.718" rx="0.673" ry="0.718" transform="translate(2.444 2.224)" fill="#fdb718"/>
        <path id="Trazado_635" data-name="Trazado 635" d="M10.2,49.539a.713.713,0,0,0-.457-.676q-.336.608-.62,1.247a.641.641,0,0,0,.4.147A.7.7,0,0,0,10.2,49.539Z" transform="translate(-7.765 -48.863)" fill="#fdb718"/>
        <path id="Trazado_636" data-name="Trazado 636" d="M4.778,63.6a.74.74,0,0,0-.191-.5q-.207.593-.369,1.205A.7.7,0,0,0,4.778,63.6Z" transform="translate(-3.698 -60.661)" fill="#fdb718"/>
        <ellipse id="Elipse_46" data-name="Elipse 46" cx="0.673" cy="0.718" rx="0.673" ry="0.718" transform="translate(2.538 10.966)" fill="#fdb718"/>
        <path id="Trazado_637" data-name="Trazado 637" d="M3.743,114.178a.58.58,0,0,0-.478-.585q.115.532.264,1.05A.6.6,0,0,0,3.743,114.178Z" transform="translate(-2.909 -102.494)" fill="#fdb718"/>
        <path id="Trazado_638" data-name="Trazado 638" d="M9.228,127.185a.7.7,0,0,0-.673-.718.668.668,0,0,0-.6.4q.209.515.452,1.013a.628.628,0,0,0,.15.019A.7.7,0,0,0,9.228,127.185Z" transform="translate(-6.794 -113.161)" fill="#fdb718"/>
        <path id="Trazado_639" data-name="Trazado 639" d="M4.764,79.971H3.415a.835.835,0,0,0-.637-.467.735.735,0,0,0,0,1.464.606.606,0,0,0,.637-.484H4.932l1.415-2.572H8.528v-.343H4.952L3.482,75H1.512c-.035.17-.067.342-.1.514H3.268l1.2,2.057H1.2c0,.114-.008.228-.011.343H5.934Z" transform="translate(-1.188 -70.518)" fill="#fdb718"/>
      </g>
      <g id="ach_1_" transform="translate(8.883 9.318)">
        <path id="Trazado_640" data-name="Trazado 640" d="M53.209,58.5h.721a.266.266,0,0,1,.174.311l-.137.957h-.759a.327.327,0,0,1-.162-.485s.159-.193.3-.193l.695.023" transform="translate(-52.997 -57.918)" fill="none" stroke="#fff" stroke-width="0.2"/>
        <path id="Trazado_641" data-name="Trazado 641" d="M61.689,58.5h-.721a.65.65,0,0,0-.311.448,1.126,1.126,0,0,0,.031.821l.084.019h.678" transform="translate(-59.289 -57.918)" fill="none" stroke="#fff" stroke-width="0.2"/>
        <path id="Trazado_642" data-name="Trazado 642" d="M67.789,55.108l-.1.581-.234,1.3" transform="translate(-64.972 -55.108)" fill="none" stroke="#fff" stroke-width="0.2"/>
        <path id="Trazado_643" data-name="Trazado 643" d="M68.561,58.692a.6.6,0,0,1,.235-.242s.544-.053.64.084a.215.215,0,0,1,.1.208l-.168.976" transform="translate(-65.892 -57.868)" fill="none" stroke="#fff" stroke-width="0.2"/>
      </g>
    </g>
  </g>
</svg>
