<svg xmlns="http://www.w3.org/2000/svg" width="110.214" height="89.077" viewBox="0 0 110.214 89.077">
  <g id="Grupo_1423" data-name="Grupo 1423" transform="translate(288.738 161.622)">
    <path id="Trazado_529" data-name="Trazado 529" d="M-278.849-116.753A33.7,33.7,0,0,0-274.7-100.63a34.663,34.663,0,0,0,4.992,6.981,34.565,34.565,0,0,0,8.351,6.677,34.026,34.026,0,0,0,9.844,3.772,34.381,34.381,0,0,0,8.664.762,35.718,35.718,0,0,0,9.442-1.634,35.173,35.173,0,0,0,8.137-3.772,33.071,33.071,0,0,0,4.448-3.359,34.038,34.038,0,0,0,5.577-6.369,33.475,33.475,0,0,0,3.352-6.368,33.041,33.041,0,0,0,1.874-6.748,29.72,29.72,0,0,0,.445-4.855,1.468,1.468,0,0,1,.594-1.231q4.059-3.27,8.111-6.548c.07-.057.142-.112.217-.163.3-.2.491-.142.549.216.1.586.167,1.176.229,1.767a39.9,39.9,0,0,1,.217,4.176,46.946,46.946,0,0,1-.33,5.643,44.151,44.151,0,0,1-2.106,9.123,43.455,43.455,0,0,1-4.306,9,45.515,45.515,0,0,1-5.552,7.15,44.6,44.6,0,0,1-8.907,7.238A44.016,44.016,0,0,1-234.4-73.636a45.3,45.3,0,0,1-6.008.927,44.166,44.166,0,0,1-5.693.124,43.563,43.563,0,0,1-10.044-1.586,44.184,44.184,0,0,1-10.637-4.523,45.126,45.126,0,0,1-6.855-4.985,44.573,44.573,0,0,1-7.526-8.564,43.96,43.96,0,0,1-6.635-15.684,45.241,45.241,0,0,1-.907-7.491,44.079,44.079,0,0,1,2.573-16.71,43.983,43.983,0,0,1,6.813-12.336,44.4,44.4,0,0,1,8.071-7.994,44.355,44.355,0,0,1,10.191-5.85,44.607,44.607,0,0,1,9.6-2.723,47.814,47.814,0,0,1,4.811-.522c1.176-.075,2.351-.083,3.526-.055a43.959,43.959,0,0,1,12.158,2,44.867,44.867,0,0,1,9.863,4.465,45.773,45.773,0,0,1,9.732,8c.66.707,1.268,1.464,1.889,2.207.323.387.29.587-.122.9q-3.431,2.6-6.866,5.186c-.39.294-.573.265-.882-.111a34.854,34.854,0,0,0-9.463-8.1,34.157,34.157,0,0,0-12.1-4.284,33.61,33.61,0,0,0-6.334-.4,34.962,34.962,0,0,0-12.857,2.882,34.485,34.485,0,0,0-7.41,4.41,35.566,35.566,0,0,0-5.4,5.259,34.2,34.2,0,0,0-6.763,13.043,34.906,34.906,0,0,0-1.086,6.332C-278.839-118.9-278.81-117.986-278.849-116.753Z" fill="#ff7f00"/>
    <path id="Trazado_530" data-name="Trazado 530" d="M12.822-13.582a5.736,5.736,0,0,1,6.07-5.757,5.5,5.5,0,0,1,3.735,1.675c1.612,1.66,3.091,3.437,4.56,5.222,2.5,3.034,4.881,6.155,7.093,9.4.213.312.342.189.528,0C36.719-5.022,38.6-7.029,40.564-8.96c1.565-1.541,3.12-3.095,4.707-4.614q3.457-3.309,7.034-6.489,3.738-3.317,7.6-6.488,5.011-4.1,10.269-7.878,4.861-3.47,9.991-6.535,4.085-2.43,8.356-4.509c1.047-.506,2.1-1,3.181-1.433a5.744,5.744,0,0,1,7.791,4.06,5.775,5.775,0,0,1-3.4,6.6,90.277,90.277,0,0,0-10.01,5.186A142.1,142.1,0,0,0,73.355-22.43Q69.083-19.211,65-15.758q-3.01,2.53-5.917,5.179Q56.6-8.324,54.154-6.034c-2.732,2.567-5.392,5.208-8.011,7.888-1.824,1.866-3.6,3.778-5.382,5.684-.864.924-1.7,1.871-2.533,2.828a5.734,5.734,0,0,1-5.568,2.088,5.564,5.564,0,0,1-4.032-2.865c-1.5-2.587-3.133-5.08-4.86-7.518-1.688-2.384-3.469-4.7-5.314-6.958-1.2-1.471-2.42-2.926-3.723-4.309a6.6,6.6,0,0,1-1.822-3.229A6.346,6.346,0,0,1,12.822-13.582Z" transform="translate(-278.168 -105.421)" fill="#ff7f00"/>
  </g>
</svg>
