<svg xmlns="http://www.w3.org/2000/svg" width="93.059" height="75.212" viewBox="0 0 93.059 75.212">
  <g id="Grupo_1423" data-name="Grupo 1423" transform="translate(288.738 161.622)">
    <path id="Trazado_529" data-name="Trazado 529" d="M-280.388-123.738a28.456,28.456,0,0,0,3.5,13.614,29.267,29.267,0,0,0,4.215,5.894,29.184,29.184,0,0,0,7.051,5.638,28.73,28.73,0,0,0,8.312,3.184,29.029,29.029,0,0,0,7.315.643,30.158,30.158,0,0,0,7.972-1.38,29.7,29.7,0,0,0,6.87-3.185,27.922,27.922,0,0,0,3.756-2.836,28.739,28.739,0,0,0,4.709-5.378,28.265,28.265,0,0,0,2.831-5.377,27.9,27.9,0,0,0,1.582-5.7,25.094,25.094,0,0,0,.376-4.1,1.239,1.239,0,0,1,.5-1.04q3.427-2.761,6.848-5.529c.059-.048.12-.095.183-.137.254-.172.414-.12.463.182.08.495.141.993.194,1.492a33.7,33.7,0,0,1,.183,3.526,39.636,39.636,0,0,1-.278,4.764,37.28,37.28,0,0,1-1.778,7.7,36.691,36.691,0,0,1-3.636,7.6,38.43,38.43,0,0,1-4.688,6.037,37.659,37.659,0,0,1-7.52,6.111,37.164,37.164,0,0,1-11.43,4.674,38.252,38.252,0,0,1-5.073.783,37.292,37.292,0,0,1-4.807.1,36.782,36.782,0,0,1-8.481-1.339A37.308,37.308,0,0,1-270.2-91.6a38.1,38.1,0,0,1-5.788-4.209,37.635,37.635,0,0,1-6.354-7.231,37.117,37.117,0,0,1-5.6-13.243,38.2,38.2,0,0,1-.765-6.325,37.218,37.218,0,0,1,2.172-14.109,37.137,37.137,0,0,1,5.753-10.416,37.485,37.485,0,0,1,6.815-6.749,37.451,37.451,0,0,1,8.6-4.94,37.664,37.664,0,0,1,8.107-2.3,40.375,40.375,0,0,1,4.062-.441c.993-.063,1.985-.07,2.977-.046a37.116,37.116,0,0,1,10.265,1.689,37.884,37.884,0,0,1,8.328,3.77,38.648,38.648,0,0,1,8.217,6.751c.557.6,1.071,1.236,1.595,1.864.273.327.245.5-.1.759q-2.9,2.192-5.8,4.379c-.329.248-.484.224-.745-.094a29.429,29.429,0,0,0-7.99-6.836,28.841,28.841,0,0,0-10.216-3.617,28.379,28.379,0,0,0-5.348-.338,29.52,29.52,0,0,0-10.856,2.434,29.118,29.118,0,0,0-6.256,3.723,30.03,30.03,0,0,0-4.563,4.44,28.873,28.873,0,0,0-5.711,11.013,29.473,29.473,0,0,0-.917,5.346C-280.379-125.552-280.355-124.779-280.388-123.738Z" transform="translate(0 0)" fill="#008d05"/>
    <path id="Trazado_530" data-name="Trazado 530" d="M12.822-18.837A4.843,4.843,0,0,1,17.947-23.7,4.646,4.646,0,0,1,21.1-22.283c1.361,1.4,2.61,2.9,3.85,4.409,2.109,2.562,4.121,5.2,5.989,7.94.179.264.289.16.445,0,1.613-1.673,3.2-3.367,4.86-5,1.322-1.3,2.634-2.613,3.974-3.9q2.918-2.794,5.939-5.479,3.156-2.8,6.419-5.478,4.231-3.464,8.671-6.652,4.1-2.93,8.436-5.518,3.449-2.052,7.056-3.807c.884-.427,1.775-.843,2.686-1.21A4.849,4.849,0,0,1,86-43.545a4.876,4.876,0,0,1-2.867,5.575,76.225,76.225,0,0,0-8.452,4.378,119.979,119.979,0,0,0-10.752,7.286q-3.607,2.718-7.056,5.633-2.542,2.136-5,4.373-2.094,1.9-4.16,3.837c-2.307,2.168-4.553,4.4-6.764,6.66-1.54,1.575-3.039,3.19-4.544,4.8-.729.78-1.439,1.58-2.139,2.387a4.842,4.842,0,0,1-4.7,1.763,4.7,4.7,0,0,1-3.4-2.419c-1.263-2.184-2.646-4.289-4.1-6.348-1.426-2.013-2.929-3.965-4.487-5.875-1.013-1.242-2.043-2.471-3.143-3.638a5.572,5.572,0,0,1-1.538-2.726A5.358,5.358,0,0,1,12.822-18.837Z" transform="translate(-281.809 -106.8)" fill="#008d05"/>
  </g>
</svg>
