<svg xmlns="http://www.w3.org/2000/svg" width="19.086" height="19.084" viewBox="0 0 19.086 19.084">
  <g id="Grupo_22559" data-name="Grupo 22559" transform="translate(643.231 -11138.091)">
    <path id="Sustracción_1" data-name="Sustracción 1" d="M8.385,67.716h-.01a8.958,8.958,0,0,1-6.393-2.635A9.167,9.167,0,0,1-.664,58.621,8.951,8.951,0,0,1,2,52.265a9.033,9.033,0,0,1,6.4-2.632h.012a9.042,9.042,0,0,1,4.809,1.4l-1.92,1.5A6.567,6.567,0,0,0,8.5,51.885H8.274a6.8,6.8,0,0,0,.111,13.593H8.4a6.8,6.8,0,0,0,6.778-6.824,6.858,6.858,0,0,0-.459-2.451l1.833-1.432A9.026,9.026,0,0,1,8.385,67.716Z" transform="translate(-642.067 11088.959)" fill="#202256" stroke="rgba(0,0,0,0)" stroke-width="1"/>
    <path id="Trazado_17290" data-name="Trazado 17290" d="M505.272,450.887v.38q0,2.306,0,4.612a2.472,2.472,0,0,1-.024.385,1,1,0,0,1-1.985-.147c0-1.381,0-2.762,0-4.143v-1.048c-.108-.026-.138.059-.184.1-.432.427-.858.861-1.291,1.287a.972.972,0,0,1-1.447.04.991.991,0,0,1,.046-1.453q1.568-1.576,3.142-3.146a.967.967,0,0,1,1.431-.035q1.636,1.605,3.238,3.245a1,1,0,0,1-1.429,1.389c-.419-.4-.822-.818-1.233-1.227C505.467,451.066,505.4,451.006,505.272,450.887Z" transform="translate(-1137.945 10695.33)" fill="#202256"/>
  </g>
</svg>
