<svg xmlns="http://www.w3.org/2000/svg" width="110.256" height="98.874" viewBox="0 0 110.256 98.874">
  <g id="Grupo_1509" data-name="Grupo 1509" transform="translate(-186.805 -320.961)">
    <path id="Trazado_655" data-name="Trazado 655" d="M287.519,328.206c2.132-.1,3.227,1.629,4.707,2.678.8.565,1.431,1.786,2.472,1.465a16.232,16.232,0,0,0,5.41-2.408c.963-.774.629-2.681.739-4.093.283-3.63,1.506-4.839,5.082-4.871,1.572-.015,3.144-.032,4.715.008,2.832.071,4.151,1.287,4.527,4.105.019.142.028.284.041.426.448,4.827,1,5.469,5.551,6.8a1.917,1.917,0,0,0,1.936-.532c1.045-.865,2.055-1.777,3.136-2.6,1.921-1.455,3.656-1.384,5.388.25q2.26,2.131,4.395,4.394a3.693,3.693,0,0,1,.3,5.222,2.2,2.2,0,0,1-.4.5c-3.1,2.341-3.227,5.063-1.336,8.289.658,1.122,1.256,1.8,2.563,1.822a25.543,25.543,0,0,1,3.629.249,3.81,3.81,0,0,1,3.612,4.054c.071,2,.076,4,0,6-.1,2.544-1.473,3.892-4.011,4.116-.142.012-.286.01-.428.021-4.695.35-5.731,1.244-6.883,5.776a2,2,0,0,0,.618,1.924c.869,1.043,1.784,2.049,2.614,3.122a3.657,3.657,0,0,1-.1,5.07c-1.529,1.695-3.156,3.312-4.842,4.852a3.508,3.508,0,0,1-4.878.133,3.394,3.394,0,0,1-.654-.551c-2.283-2.862-4.835-3.341-8.063-1.375a3.4,3.4,0,0,0-2.045,2.886c-.534,6.919-.562,6.923-7.517,6.923-.643,0-1.286,0-1.929,0-3.705-.021-4.773-1.052-4.992-4.819-.228-3.915-2.134-5.944-6.039-6.5a1.83,1.83,0,0,0-1.5.639c-1.163.947-2.277,1.959-3.482,2.847a3.468,3.468,0,0,1-4.86-.3c-1.555-1.474-3.084-2.98-4.552-4.54-1.7-1.808-1.734-3.34-.249-5.368a2.1,2.1,0,0,1,.405-.5c3.429-2.45,2.846-5.351,1.083-8.5a2.18,2.18,0,0,0-1.929-1.374c-1.21-.075-2.413-.256-3.622-.36-2.729-.237-3.94-1.5-3.99-4.282q-.053-2.893,0-5.787c.05-2.446,1.08-3.622,3.507-4.107a2.578,2.578,0,0,1,.845-.122c3.608.555,5.422-1.175,6.442-4.522.451-1.479.533-2.365-.537-3.569-4.542-5.11-4.484-5.494.447-10.421C285.55,328.558,286.043,328.235,287.519,328.206Zm40.911,53.6a15.545,15.545,0,0,0,4.139-4c.773-1.076-.647-1.695-1.19-2.441-.671-.922-1.45-1.766-2.193-2.633a2.9,2.9,0,0,1-.4-3.565,31.816,31.816,0,0,0,2.543-6.122,2.933,2.933,0,0,1,2.83-2.213,31.321,31.321,0,0,1,3.833-.348c1.965.1,2.376-.8,2.344-2.579-.078-4.369,0-4.369-4.438-4.567-.428-.019-.855-.052-1.283-.081a3.526,3.526,0,0,1-3.5-2.888,20.187,20.187,0,0,0-2.216-5.324,3.116,3.116,0,0,1,.374-3.945c1.018-1.2,2.019-2.41,3.058-3.588a1.215,1.215,0,0,0,.016-1.849c-3.276-4.119-3.563-4.168-7.487-.79-.271.233-.542.465-.809.7a3.376,3.376,0,0,1-4.316.42,26.335,26.335,0,0,0-4.31-1.878c-3.189-1.092-3.653-1.529-3.765-4.813-.19-5.544-.341-4.492-5-4.651-1.6-.054-2.156.6-2.147,2.139.007,1.277-.277,2.554-.346,3.835a3.178,3.178,0,0,1-2.449,3.113,21.255,21.255,0,0,0-4.559,1.825c-2.334,1.446-4.1,1.09-6.12-.7-3.765-3.35-3.835-3.228-7.154.634a1.449,1.449,0,0,0-.079,2.226c.992,1.125,1.932,2.3,2.918,3.426a3.155,3.155,0,0,1,.41,3.934,35.057,35.057,0,0,0-2.074,4.693c-1.026,2.914-1.592,3.458-4.774,3.549-5.6.161-4.287.674-4.5,4.733-.09,1.727.473,2.5,2.278,2.405,3.949-.2,6.177,1.2,7.85,5.356,1.716,4.263,1.746,7.165-1.722,10.047-1.231,1.023-1.1,2.014.123,2.976a6.022,6.022,0,0,1,1.207,1.213c1.354,1.915,2.749,1.955,4.26.2,2.468-2.871,4.873-2.871,8.587-1.493,4.641,1.722,6.592,4.121,6.2,8.817-.1,1.216.6,1.605,1.728,1.6,5.514-.045,5.188.615,5.373-4.681.1-3,.668-3.607,3.535-4.554a10.859,10.859,0,0,0,3.166-1.276c2.872-2.168,5.128-1.171,7.284,1.08a14.185,14.185,0,0,0,1.632,1.386A11.282,11.282,0,0,0,328.43,381.807Z" transform="translate(-48.71)" fill="#202256"/>
    <path id="Trazado_656" data-name="Trazado 656" d="M242.013,514.906q24.338,0,48.677,0c4.842,0,6.36,1.545,6.363,6.439,0,1.358.02,2.717-.006,4.074-.058,2.953-1.767,4.9-4.681,5.091-2.135.142-4.287.06-6.43.03-1.2-.017-2.177-.547-2.2-1.849-.027-1.354.979-1.787,2.184-1.8,1.787-.019,3.574-.033,5.36-.02a1.816,1.816,0,0,0,2.089-2.091c-.036-7.193.779-6.132-5.664-6.164-9.506-.048-19.014.033-28.52-.05-1.936-.017-2.63.53-2.617,2.533.038,5.776-.039,5.776,5.767,5.777q7.4,0,14.8,0c1.282,0,2.633.1,2.626,1.769-.006,1.571-1.265,1.906-2.584,1.913-2.931.015-5.861.011-8.792.011q-37.526,0-75.052.007c-1.822,0-3.58-.1-4.975-1.5-2.068-2.064-2.054-10.652.012-12.73,1.272-1.279,2.851-1.459,4.546-1.456Q217.46,514.923,242.013,514.906Zm-40.426,11.969c2.423.77,4.055-.618,5.056-3.231a18.769,18.769,0,0,1,1.6-3.023c.86-1.4.856-1.872-1.114-2.1-4.051-.467-6.587.693-8.214,4.7C197.375,527.022,197.014,526.875,201.587,526.875Zm15.53-8.272c-1.258.386-3.154-.86-4.214,1.149-1,1.893-1.978,3.8-3.025,5.662-.662,1.179-.254,1.42.941,1.48,5.941.3,5.94.329,8.674-4.835C221.323,518.6,221.323,518.6,217.117,518.6Zm8.215,8.272c1.264-.371,3.154.842,4.206-1.178q1.483-2.847,3.018-5.667c.514-.94.444-1.346-.787-1.449-5.826-.484-5.856-.5-8.633,4.512-.035.062-.074.122-.108.185C221.042,526.875,221.042,526.875,225.332,526.875Zm12.083,0c1.272-.344,3.151.815,4.179-1.245q1.385-2.775,2.919-5.476c.739-1.3.24-1.527-1.031-1.571-5.732-.2-5.731-.229-8.484,4.767C233.055,526.875,233.055,526.875,237.416,526.875Zm15.259-4.1a15.36,15.36,0,0,0-.012-1.7c-.1-.9.424-2.133-1.054-2.417a2.344,2.344,0,0,0-2.912,1.49c-.568,1.3-1.315,2.518-1.988,3.77-1.594,2.967-1.595,2.983,1.839,2.962C253.05,526.844,252.652,527.419,252.674,522.771Zm-62.033-.12c0,.711,0,1.422,0,2.133.005.9.154,1.743,1.207,1.988,1.007.234,1.362-.525,1.737-1.225.538-1,1.135-1.977,1.6-3.01.547-1.2,2.093-2.578,1.441-3.542-.716-1.061-2.632-.278-4.02-.37a1.633,1.633,0,0,0-1.973,1.894C190.659,521.229,190.643,521.94,190.642,522.652Z" transform="translate(0 -110.758)" fill="#0096d8"/>
    <path id="Trazado_657" data-name="Trazado 657" d="M233.059,421.808a4.824,4.824,0,0,1-2.391,3.846c-3.221,2.4-3.23,3.639-.122,5.99,2.921,2.21,3.179,3.476,1.367,6.716-.139.249-.289.493-.433.739-3.091,5.3-3.091,5.3-8.958,3.459a2.742,2.742,0,0,0-3.573,2.27c-.137.988-.217,1.989-.443,2.957a3.319,3.319,0,0,1-2.763,2.662,19.115,19.115,0,0,1-7.027.022c-2.58-.471-3.014-2.533-3.258-4.672-.368-3.231-1.7-4.028-4.714-2.788-3.812,1.57-4.886,1.209-6.961-2.341-.18-.308-.353-.621-.534-.929-2.893-4.911-2.832-5.269,1.51-8.8a2.649,2.649,0,0,0,.032-4.476c-.556-.447-1.159-.836-1.712-1.287-1.914-1.562-2.273-3.111-1.126-5.274.8-1.513,1.675-2.992,2.6-4.435,1.232-1.925,2.814-2.412,4.98-1.608.735.273,1.425.672,2.167.922a2.754,2.754,0,0,0,3.7-2.342,25.179,25.179,0,0,1,.431-2.745,3.384,3.384,0,0,1,3.32-2.827c2-.085,4-.1,6,0,2.2.112,3.338,1.5,3.7,4.23.524,3.94,1.64,4.577,5.314,3.034,2.976-1.25,4.466-.824,6.048,1.985C231.283,418.024,232.769,419.754,233.059,421.808Zm-4.127-.512a18.767,18.767,0,0,0-2.255-3.529c-.83-.858-1.863.218-2.729.568-4.124,1.669-8.444-.829-8.656-5.211-.1-2.053-.922-2.661-2.91-2.658-2.017,0-3.358.316-3.313,2.7.022,1.2.107,2.651-1.011,3.36-2.513,1.592-4.955,3.894-8.288,1.538-2.237-1.581-2.642.606-3.551,1.843-1.071,1.458-.962,2.493.646,3.491,1.058.657,2.3,1.266,2.7,2.636a6.742,6.742,0,0,1-2.751,7.951c-1.826,1.17-1.455,2.176-.544,3.6.9,1.409,1.43,2.853,3.714,1.736,4.423-2.165,8.686.247,9.081,5.07.195,2.382,1.566,2.411,3.364,2.444,1.843.033,2.859-.487,2.844-2.492-.009-1.2-.039-2.469.912-3.426a7,7,0,0,1,8.443-1.516c1.379.622,2.3.484,2.947-.931a5.232,5.232,0,0,1,.636-1.116c1.145-1.426.972-2.454-.7-3.385a5.016,5.016,0,0,1-2.715-2.624,7.2,7.2,0,0,1,2.69-8C228.081,422.884,228.9,422.574,228.932,421.3Z" transform="translate(-2.543 -49.024)" fill="#202256"/>
    <path id="Trazado_658" data-name="Trazado 658" d="M349.4,379.135a19.314,19.314,0,1,1-34.621-11.775c.75-1,1.638-2.055,3-1.115,1.466,1.009.768,2.184-.014,3.327-5.488,8.019-3.816,17.626,3.931,22.706a15.515,15.515,0,0,0,17.182-.271c5.237-3.7,7.636-8.907,6.605-15.248-1.085-6.677-5.13-11-11.723-12.775a14.733,14.733,0,0,0-9.253.566c-1.344.511-2.792,1.068-3.4-.747-.588-1.768.962-2.295,2.242-2.785C335.852,356.226,349.406,365.659,349.4,379.135Z" transform="translate(-70.807 -22.155)" fill="#202256"/>
    <path id="Trazado_659" data-name="Trazado 659" d="M345.367,386.776a7.735,7.735,0,0,1,7.764,7.742,8.021,8.021,0,0,1-7.873,7.966,8.113,8.113,0,0,1-7.909-7.952A7.9,7.9,0,0,1,345.367,386.776Zm3.95,8.035a4.026,4.026,0,1,0-8.038-.483,3.981,3.981,0,0,0,3.744,4.383A4.161,4.161,0,0,0,349.316,394.811Z" transform="translate(-85.976 -37.587)" fill="#202256"/>
    <path id="Trazado_660" data-name="Trazado 660" d="M237.2,446.417a8.443,8.443,0,0,1-9.406,8.5c-1.246-.136-2.362-.566-2.294-2,.07-1.47,1.228-1.751,2.492-1.679,2.177.124,3.96-.558,4.965-2.611a4.794,4.794,0,0,0-5.225-6.809,4.889,4.889,0,0,0-3.753,3.969,2.492,2.492,0,0,0-.046.639c.061,1.439.319,3.236-1.759,3.186s-1.967-1.921-1.941-3.423a8.485,8.485,0,0,1,16.967.233Z" transform="translate(-19.088 -66.821)" fill="#202256"/>
  </g>
</svg>
