<svg xmlns="http://www.w3.org/2000/svg" xmlns:xlink="http://www.w3.org/1999/xlink" width="28.741" height="28.739" viewBox="0 0 28.741 28.739">
  <defs>
    <linearGradient id="linear-gradient" x1="-0.47" y1="-0.157" x2="1.566" y2="1.128" gradientUnits="objectBoundingBox">
      <stop offset="0" stop-color="#2d5ca8"/>
      <stop offset="0.393" stop-color="#244f8e"/>
      <stop offset="1" stop-color="#0d2d4d"/>
    </linearGradient>
  </defs>
  <g id="pse-seeklogo.com" transform="translate(0)">
    <ellipse id="Circle_1_" cx="14.37" cy="14.37" rx="14.37" ry="14.37" transform="translate(0)" fill="url(#linear-gradient)"/>
    <g id="PSE_1_" transform="translate(6.087 10.81)">
      <path id="Trazado_632" data-name="Trazado 632" d="M87.357,71h-3.4a.224.224,0,0,0-.046,0,1.954,1.954,0,0,0-1.556,1.879A1.479,1.479,0,0,0,83.5,74.39h2.425c.107,0,.77.151.726,1.307s-1.037,1.316-1.18,1.47H81.715a.232.232,0,0,0,0,.463h3.778c.012,0,.024-.056.036-.059a1.947,1.947,0,0,0,1.552-1.883c.062-1.637-1.122-1.74-1.134-1.741l-2.393-.007a.987.987,0,0,1-.771-1.056c0-.005,0,.008,0,0a1.447,1.447,0,0,1,1.2-1.428h3.377a.232.232,0,0,0,0-.463Z" transform="translate(-75.198 -70.971)" fill="#fff"/>
      <path id="Trazado_633" data-name="Trazado 633" d="M126.029,70.839c-.02-.006-.04.024-.06.024h-2.542c-1.151,0-1.67,1.332-1.692,1.39,0,.009-.006,0-.008.012a28.156,28.156,0,0,0-.625,3.846c.02.87.906,1.187,1.372,1.237.008,0,.015-.007.023-.007h3.534a.232.232,0,0,0,0-.463h-3.52c-.111,0-.958-.129-.974-.8a11.393,11.393,0,0,1,.219-1.753l4.918-.037a.215.215,0,0,0,.212-.178,15.5,15.5,0,0,0,.23-2.066C127.116,71.146,126.073,70.852,126.029,70.839Zm.458,3.019-4.652.039c.143-.758.288-1.379.313-1.491.05-.124.476-1.08,1.279-1.08h2.507c.136,0,.747.24.747.749A13.4,13.4,0,0,1,126.486,73.858Z" transform="translate(-108.69 -70.839)" fill="#fff"/>
      <path id="Trazado_634" data-name="Trazado 634" d="M47.153,72.3c.128-.868-.969-1.3-1.174-1.3h0c-.885,0-2.226.03-2.366.026-.019,0-.038.01-.057.013a2.482,2.482,0,0,0-1.532,1.446l0,0a3.357,3.357,0,0,0-.077.354c-.039.2-.093.5-.157.846-.129.7-.3,1.631-.469,2.563-.339,1.863-.676,3.727-.676,3.727a.211.211,0,1,0,.416.075c.143-.788.376-2.078.61-3.364a1.993,1.993,0,0,0,1.273.773.127.127,0,0,0,.026,0l2.174-.062a.2.2,0,0,0,.055-.009,2.172,2.172,0,0,0,1.354-1.419.23.23,0,0,0,.005-.023l.59-3.614C47.152,72.33,47.152,72.31,47.153,72.3Zm-.422-.008-.586,3.575a1.772,1.772,0,0,1-1.04,1.111l-2.129.061a1.692,1.692,0,0,1-1.193-.956c.313-1.72.6-3.288.638-3.455a2.129,2.129,0,0,1,1.193-1.161c.081,0,.192.005.346.005h.823l1.146,0C46.181,71.47,46.792,71.9,46.731,72.294Z" transform="translate(-40.644 -70.975)" fill="#fff"/>
    </g>
    <g id="Figures" transform="translate(0 7.42)">
      <ellipse id="Elipse_45" data-name="Elipse 45" cx="0.605" cy="0.646" rx="0.605" ry="0.646" transform="translate(2.199 2.001)" fill="#fdb718"/>
      <path id="Trazado_635" data-name="Trazado 635" d="M10.095,49.472a.641.641,0,0,0-.411-.609q-.3.547-.557,1.122a.576.576,0,0,0,.363.132A.626.626,0,0,0,10.095,49.472Z" transform="translate(-7.901 -48.863)" fill="#fdb718"/>
      <path id="Trazado_636" data-name="Trazado 636" d="M4.722,63.553a.666.666,0,0,0-.172-.45q-.186.533-.332,1.084A.634.634,0,0,0,4.722,63.553Z" transform="translate(-3.751 -60.906)" fill="#fdb718"/>
      <ellipse id="Elipse_46" data-name="Elipse 46" cx="0.605" cy="0.646" rx="0.605" ry="0.646" transform="translate(2.283 9.866)" fill="#fdb718"/>
      <path id="Trazado_637" data-name="Trazado 637" d="M3.7,114.119a.522.522,0,0,0-.43-.526q.1.478.237.945A.544.544,0,0,0,3.7,114.119Z" transform="translate(-2.945 -103.608)" fill="#fdb718"/>
      <path id="Trazado_638" data-name="Trazado 638" d="M9.1,127.113a.626.626,0,0,0-.605-.646.6.6,0,0,0-.541.363q.188.464.406.911a.565.565,0,0,0,.135.017A.626.626,0,0,0,9.1,127.113Z" transform="translate(-6.91 -114.496)" fill="#fdb718"/>
      <path id="Trazado_639" data-name="Trazado 639" d="M4.406,79.473H3.192a.752.752,0,0,0-.573-.42.661.661,0,0,0,0,1.318.546.546,0,0,0,.573-.435H4.556l1.273-2.314H7.792v-.309H4.574L3.252,75H1.479c-.031.153-.06.308-.087.463H3.059l1.083,1.851H1.2c0,.1-.008.205-.01.309h4.27Z" transform="translate(-1.188 -70.967)" fill="#fdb718"/>
    </g>
    <g id="ach_1_" transform="translate(7.992 8.383)">
      <path id="Trazado_640" data-name="Trazado 640" d="M53.188,58.5h.649a.239.239,0,0,1,.157.28l-.123.861h-.682a.294.294,0,0,1-.145-.436s.143-.173.269-.173l.625.021" transform="translate(-52.997 -57.976)" fill="none" stroke="#fff" stroke-width="0.2"/>
      <path id="Trazado_641" data-name="Trazado 641" d="M61.579,58.5H60.93a.585.585,0,0,0-.28.4,1.013,1.013,0,0,0,.028.738l.076.017h.61" transform="translate(-59.42 -57.976)" fill="none" stroke="#fff" stroke-width="0.2"/>
      <path id="Trazado_642" data-name="Trazado 642" d="M67.755,55.108l-.094.523L67.45,56.8" transform="translate(-65.221 -55.108)" fill="none" stroke="#fff" stroke-width="0.2"/>
      <path id="Trazado_643" data-name="Trazado 643" d="M68.561,58.666a.54.54,0,0,1,.212-.218s.489-.048.576.076a.193.193,0,0,1,.092.187l-.151.878" transform="translate(-66.16 -57.926)" fill="none" stroke="#fff" stroke-width="0.2"/>
    </g>
  </g>
</svg>
