<svg xmlns="http://www.w3.org/2000/svg" width="50.196" height="68.555" viewBox="0 0 50.196 68.555">
  <g id="Grupo_1439" data-name="Grupo 1439" transform="translate(1059.35 287.252)">
    <path id="Trazado_450" data-name="Trazado 450" d="M-969.164-8.759A2.583,2.583,0,0,1-966.7-5.422c-.991,3.552-2.008,7.1-3.006,10.647a2.674,2.674,0,0,1-2.249,2.129,2.25,2.25,0,0,1-.37.031,2.615,2.615,0,0,1-2.541-2.809c.069-.574.285-1.111.321-1.74-1.155,1.163-2.3,2.334-3.467,3.486a2.567,2.567,0,0,1-1.815.778,2.577,2.577,0,0,1-1.04-.224,2.582,2.582,0,0,1-.765-4.264c.981-1.029,2.007-2.015,3.008-3.024a.961.961,0,0,0,.359-.473c-.435.117-.836.234-1.242.334a2.972,2.972,0,0,1-.712.088,2.543,2.543,0,0,1-2.5-1.9,2.576,2.576,0,0,1,1.867-3.184c3.642-1.045,7.284-2.09,10.934-3.108a2.8,2.8,0,0,1,.754-.105m0-2.846a5.655,5.655,0,0,0-1.518.21c-3.536.986-7.119,2.014-10.583,3.007l-.371.106a5.435,5.435,0,0,0-3.83,6.661A5.412,5.412,0,0,0-983.943.934a5.578,5.578,0,0,0-1.236,4.658,5.373,5.373,0,0,0,3.17,3.89,5.4,5.4,0,0,0,2.185.465,5.39,5.39,0,0,0,3.615-1.41,5.4,5.4,0,0,0,3.888,1.695,5.108,5.108,0,0,0,.84-.07A5.479,5.479,0,0,0-966.961,6c.431-1.535.874-3.1,1.3-4.6.561-1.98,1.142-4.028,1.705-6.047a5.457,5.457,0,0,0-.893-4.808,5.377,5.377,0,0,0-4.318-2.14Z" transform="translate(-61.202 -228.928)" fill="#ff7f00"/>
    <g id="Grupo_1295" data-name="Grupo 1295" transform="translate(-1059.35 -287.252)">
      <g id="Grupo_1294" data-name="Grupo 1294" transform="translate(0 0)">
        <path id="Trazado_451" data-name="Trazado 451" d="M-1048.168-261.334a4.177,4.177,0,0,0,.816.957,1.414,1.414,0,0,1,.1,2.048,1.388,1.388,0,0,1-2.041.023q-1.748-1.658-3.408-3.407a1.369,1.369,0,0,1,.049-2.089q1.6-1.633,3.228-3.23a1.4,1.4,0,0,1,2.088-.075,1.471,1.471,0,0,1-.11,2.1c-.218.227-.466.425-.685.622.154.283.344.192.491.193,1.4.009,2.791,0,4.186.009a10.263,10.263,0,0,1,9.828,8.78,28.978,28.978,0,0,1,.1,3.418c.014,2.537,0,5.074,0,7.611a5.167,5.167,0,0,1-.018.634,1.435,1.435,0,0,1-1.392,1.313,1.405,1.405,0,0,1-1.425-1.339c-.049-.716-.033-1.437-.018-2.155.009-.411-.154-.551-.56-.56a16.768,16.768,0,0,1-3.1-.106,5.2,5.2,0,0,1-3.3-2.075,1.144,1.144,0,0,0-1.067-.5q-4.63.021-9.26,0a5.534,5.534,0,0,1-5.614-4.473,5.7,5.7,0,0,1-.076-1.2q0-13.352,0-26.7a5.48,5.48,0,0,1,5.66-5.7c2.981-.021,5.962,0,8.943,0q11.48,0,22.961,0a5.508,5.508,0,0,1,5.36,3.258,5.812,5.812,0,0,1,.518,2.526c.008,1.438.028,2.876-.009,4.313-.016.609.176.828.792.786a5.322,5.322,0,0,1,4.828,2.137,5.286,5.286,0,0,1,1.133,3.3c.005,6.322.016,12.643,0,18.965a5.476,5.476,0,0,1-5.444,5.476c-4.44.024-8.88.007-13.32.006a2.441,2.441,0,0,1-.5-.038,1.434,1.434,0,0,1-1.167-1.394,1.422,1.422,0,0,1,1.177-1.383,4.06,4.06,0,0,1,.758-.039q6.343,0,12.685,0a2.669,2.669,0,0,0,2.963-2.986q0-6.121,0-12.242c0-.833,0-.836-.851-.837h-22.644a3.6,3.6,0,0,1-1.193-.121,1.381,1.381,0,0,1-.939-1.542,1.329,1.329,0,0,1,1.284-1.178c.232-.015.465-.007.7-.007h22.77c.873,0,.874,0,.875-.864,0-.613.013-1.227-.006-1.839a2.555,2.555,0,0,0-2.6-2.56q-12.209-.016-24.419,0a2.555,2.555,0,0,0-2.591,2.634c-.011.824.006,1.649-.007,2.474a1.465,1.465,0,0,1-1.42,1.617,1.442,1.442,0,0,1-1.426-1.6,20.27,20.27,0,0,1,.1-3.48,5.385,5.385,0,0,1,5.356-4.493q9.7-.013,19.409,0c.872,0,.873,0,.873-.861,0-1.4.007-2.791,0-4.186a2.739,2.739,0,0,0-2.961-2.98q-15.92-.009-31.84,0a2.673,2.673,0,0,0-2.945,2.949q-.007,2.125,0,4.25c0,.825,0,.827.856.827,2.389,0,4.778-.006,7.167.006a1.384,1.384,0,0,1,1.452,1.3,1.428,1.428,0,0,1-1.2,1.485,4.274,4.274,0,0,1-.82.056c-2.22,0-4.44.019-6.66-.008-.6-.007-.81.163-.808.785.02,5.962.008,11.924.015,17.886a2.626,2.626,0,0,0,2.794,2.84c2.875.028,5.751,0,8.626.016.442,0,.594-.154.59-.591-.017-1.5-.011-3,0-4.5.005-1.033.549-1.683,1.4-1.7.87-.019,1.448.653,1.453,1.714.007,1.607,0,3.214,0,4.82a2.662,2.662,0,0,0,2.956,2.93c.613,0,1.227,0,1.839,0,.266,0,.468-.078.457-.388-.075-2.043.251-4.107-.25-6.127a7.255,7.255,0,0,0-6.877-5.479C-1045.028-261.355-1046.547-261.334-1048.168-261.334Z" transform="translate(1059.35 287.252)" fill="#ff7f00"/>
        <path id="Trazado_452" data-name="Trazado 452" d="M-923.543-252.3q-3.264,0-6.528,0a1.552,1.552,0,0,1-1.382-.626,1.406,1.406,0,0,1,.937-2.2,3.745,3.745,0,0,1,.695-.034q6.274,0,12.549,0c.148,0,.3,0,.444,0a1.45,1.45,0,0,1,1.484,1.422,1.424,1.424,0,0,1-1.48,1.42c-1.309.027-2.62.01-3.929.011Z" transform="translate(953.345 260.596)" fill="#ff7f00"/>
        <path id="Trazado_453" data-name="Trazado 453" d="M-861.86-199.084c1.522,0,3.044,0,4.566,0a1.427,1.427,0,0,1,1.594,1.356,1.454,1.454,0,0,1-1.508,1.472q-4.692.04-9.385,0a1.454,1.454,0,0,1-1.5-1.48,1.431,1.431,0,0,1,1.6-1.348C-864.946-199.088-863.4-199.084-861.86-199.084Z" transform="translate(900.51 214.029)" fill="#ff7f00"/>
        <path id="Trazado_454" data-name="Trazado 454" d="M-994.186-255.083a1.444,1.444,0,0,1,1.435,1.4,1.446,1.446,0,0,1-1.4,1.435,1.445,1.445,0,0,1-1.435-1.4A1.443,1.443,0,0,1-994.186-255.083Z" transform="translate(1006.392 260.535)" fill="#ff7f00"/>
        <path id="Trazado_455" data-name="Trazado 455" d="M-939.554-197.662a1.328,1.328,0,0,1,1.394-1.39,1.407,1.407,0,0,1,1.421,1.4,1.473,1.473,0,0,1-1.422,1.418A1.408,1.408,0,0,1-939.554-197.662Z" transform="translate(959.858 214.001)" fill="#ff7f00"/>
        <path id="Trazado_456" data-name="Trazado 456" d="M-915.6-197.654a1.329,1.329,0,0,1,1.386-1.4,1.407,1.407,0,0,1,1.429,1.389,1.473,1.473,0,0,1-1.414,1.426A1.408,1.408,0,0,1-915.6-197.654Z" transform="translate(939.964 214.001)" fill="#ff7f00"/>
        <path id="Trazado_457" data-name="Trazado 457" d="M-891.649-197.676a1.331,1.331,0,0,1,1.408-1.376,1.406,1.406,0,0,1,1.407,1.41,1.472,1.472,0,0,1-1.435,1.4A1.408,1.408,0,0,1-891.649-197.676Z" transform="translate(920.073 214.001)" fill="#ff7f00"/>
        <path id="Trazado_458" data-name="Trazado 458" d="M-1024.736-253.624a1.421,1.421,0,0,1-1.451,1.365,1.461,1.461,0,0,1-1.363-1.471,1.459,1.459,0,0,1,1.469-1.365A1.424,1.424,0,0,1-1024.736-253.624Z" transform="translate(1032.94 260.546)" fill="#ff7f00"/>
        <path id="Trazado_459" data-name="Trazado 459" d="M-962.1-255.095a1.457,1.457,0,0,1,1.406,1.429,1.46,1.46,0,0,1-1.426,1.41,1.423,1.423,0,0,1-1.387-1.43A1.419,1.419,0,0,1-962.1-255.095Z" transform="translate(979.749 260.545)" fill="#ff7f00"/>
      </g>
    </g>
  </g>
</svg>
