<svg xmlns="http://www.w3.org/2000/svg" width="47.689" height="42.586" viewBox="0 0 47.689 42.586">
  <path id="Trazado_429" data-name="Trazado 429" d="M-2194.466-262.628a3.968,3.968,0,0,0,.775.909,1.343,1.343,0,0,1,.1,1.946,1.319,1.319,0,0,1-1.939.022q-1.66-1.576-3.238-3.237a1.3,1.3,0,0,1,.047-1.984q1.516-1.552,3.067-3.069a1.332,1.332,0,0,1,1.984-.071,1.4,1.4,0,0,1-.1,1.994c-.207.216-.442.4-.651.591.146.269.327.183.467.183,1.326.009,2.651,0,3.977.009a9.751,9.751,0,0,1,9.337,8.342,27.5,27.5,0,0,1,.1,3.248c.013,2.41,0,4.821,0,7.231a4.943,4.943,0,0,1-.017.6,1.364,1.364,0,0,1-1.323,1.247,1.335,1.335,0,0,1-1.354-1.272c-.047-.68-.032-1.366-.017-2.048.009-.391-.146-.524-.532-.532a15.931,15.931,0,0,1-2.944-.1,4.941,4.941,0,0,1-3.136-1.972,1.087,1.087,0,0,0-1.013-.479q-4.4.02-8.8,0a5.258,5.258,0,0,1-5.333-4.25,5.443,5.443,0,0,1-.073-1.139q0-12.685,0-25.37a5.207,5.207,0,0,1,5.378-5.417c2.832-.02,5.664,0,8.5,0q10.907,0,21.814,0a5.234,5.234,0,0,1,5.093,3.095,5.52,5.52,0,0,1,.492,2.4c.008,1.366.027,2.732-.009,4.1-.015.579.167.787.752.747a5.056,5.056,0,0,1,4.587,2.03,5.023,5.023,0,0,1,1.077,3.134c.005,6.006.015,12.012,0,18.018a5.2,5.2,0,0,1-5.172,5.2c-4.218.023-8.437.007-12.655.005a2.325,2.325,0,0,1-.479-.036,1.363,1.363,0,0,1-1.109-1.324,1.351,1.351,0,0,1,1.118-1.314,3.855,3.855,0,0,1,.72-.037q6.026,0,12.052,0a2.536,2.536,0,0,0,2.815-2.837q0-5.815,0-11.63c0-.792,0-.795-.808-.795h-21.513a3.425,3.425,0,0,1-1.133-.115,1.312,1.312,0,0,1-.892-1.465,1.262,1.262,0,0,1,1.22-1.119c.22-.015.442-.007.663-.007h21.633c.829,0,.83,0,.831-.82,0-.583.012-1.166-.006-1.747a2.428,2.428,0,0,0-2.471-2.433q-11.6-.015-23.2,0a2.428,2.428,0,0,0-2.461,2.5c-.011.783.006,1.567-.007,2.35a1.392,1.392,0,0,1-1.349,1.536,1.371,1.371,0,0,1-1.355-1.524,19.3,19.3,0,0,1,.091-3.306,5.117,5.117,0,0,1,5.089-4.269q9.22-.012,18.44,0c.829,0,.829,0,.83-.818,0-1.326.007-2.651,0-3.977a2.6,2.6,0,0,0-2.813-2.831q-15.125-.008-30.25,0a2.539,2.539,0,0,0-2.8,2.8c0,1.346,0,2.692,0,4.038,0,.784,0,.786.813.786,2.27,0,4.54-.005,6.81.006a1.315,1.315,0,0,1,1.379,1.234,1.357,1.357,0,0,1-1.14,1.411,4.062,4.062,0,0,1-.779.053c-2.109,0-4.218.018-6.327-.008-.566-.007-.77.155-.768.746.019,5.664.008,11.329.014,16.993a2.5,2.5,0,0,0,2.654,2.7c2.731.027,5.463,0,8.2.015.42,0,.565-.146.56-.561-.016-1.426-.01-2.852,0-4.278,0-.981.521-1.6,1.331-1.617.827-.018,1.376.62,1.38,1.628.007,1.527,0,3.053,0,4.58a2.529,2.529,0,0,0,2.809,2.784c.583,0,1.165,0,1.747,0,.253,0,.445-.074.434-.369-.071-1.941.239-3.9-.238-5.821a6.892,6.892,0,0,0-6.533-5.206C-2191.482-262.648-2192.925-262.628-2194.466-262.628Z" transform="translate(2205.089 287.252)" fill="#ff7f00"/>
</svg>
