<svg xmlns="http://www.w3.org/2000/svg" width="32" height="32.002" viewBox="0 0 32 32.002">
  <g id="Grupo_22765" data-name="Grupo 22765" transform="translate(-2826.071 -1740.54)">
    <path id="Trazado_737" data-name="Trazado 737" d="M2826.071,1756.538a16,16,0,1,1,15.966,16A15.994,15.994,0,0,1,2826.071,1756.538Zm30,.01a14,14,0,1,0-14,13.99A14.015,14.015,0,0,0,2856.068,1756.548Z" transform="translate(0)" fill="#fff"/>
    <path id="Trazado_738" data-name="Trazado 738" d="M2921.61,1806.578c-.221-.081-.417-.143-.607-.223a4.443,4.443,0,0,1-2.879-3.9c-.073-.763.313-1.261.934-1.294.594-.031.988.389,1.058,1.129a2.5,2.5,0,1,0,2.568-2.643,5.838,5.838,0,0,1-1.986-.445,4.218,4.218,0,0,1-2.569-4.209,4.345,4.345,0,0,1,2.865-4.031c.189-.082.388-.142.429-.157a18.857,18.857,0,0,1,.563-1.89c.061-.15.433-.24.664-.242.692-.006.887.418.989,2.063.171.064.363.13.549.208a4.448,4.448,0,0,1,2.908,3.944,1.034,1.034,0,0,1-.9,1.263c-.595.051-1.02-.376-1.088-1.095a2.5,2.5,0,1,0-2.476,2.6,4.491,4.491,0,0,1,1.388,8.76c-.3.11-.448.235-.413.568a3.57,3.57,0,0,1,0,.749.994.994,0,0,1-1.984-.022c-.018-.186-.007-.375-.008-.562S2921.61,1806.776,2921.61,1806.578Z" transform="translate(-80.54 -42.116)" fill="#fff"/>
  </g>
</svg>
