<svg id="Grupo_1582" data-name="Grupo 1582" xmlns="http://www.w3.org/2000/svg" width="18.077" height="18.096" viewBox="0 0 18.077 18.096">
  <path id="Trazado_678" data-name="Trazado 678" d="M1800.053,457.179a2.412,2.412,0,0,1,.847-2.073c.413-.383.8-.79,1.215-1.175a1.256,1.256,0,0,1,1.907,0q1.114,1.078,2.19,2.194a1.272,1.272,0,0,1-.008,1.936c-.372.392-.751.778-1.147,1.144a.551.551,0,0,0-.142.744,11.769,11.769,0,0,0,2.628,3.325,10.213,10.213,0,0,0,2.368,1.7.589.589,0,0,0,.831-.125c.35-.395.736-.759,1.117-1.125a1.27,1.27,0,0,1,1.936-.016q1.114,1.077,2.194,2.191a1.264,1.264,0,0,1-.007,1.933c-.412.435-.841.853-1.25,1.29a2.763,2.763,0,0,1-2.6.72,11.233,11.233,0,0,1-4.337-1.773,18.136,18.136,0,0,1-6.654-7.21,10.4,10.4,0,0,1-1.044-2.944A4.593,4.593,0,0,1,1800.053,457.179Z" transform="translate(-1800.042 -451.799)" fill="#059bdf"/>
  <path id="Trazado_679" data-name="Trazado 679" d="M1937.355,438.166c-.314.049-.323-.143-.354-.3a8.023,8.023,0,0,0-.7-2.059,8.751,8.751,0,0,0-6.34-4.83c-.333-.067-.483-.167-.384-.527a3.976,3.976,0,0,0,.094-.7c.023-.26.15-.334.4-.288a10.391,10.391,0,0,1,8.4,8.139c.057.272,0,.395-.28.424-.268.027-.532.087-.8.132Z" transform="translate(-1920.415 -429.454)" fill="#059bdf"/>
  <path id="Trazado_680" data-name="Trazado 680" d="M1926.771,481.853c.054-.37.1-.647.135-.926.029-.255.141-.331.4-.275a6.226,6.226,0,0,1,4.6,3.763,6.478,6.478,0,0,1,.33,1.038c.053.212-.009.339-.236.375-.3.049-.6.1-.9.161-.241.047-.3-.106-.348-.293a4.688,4.688,0,0,0-2.12-2.951,4.357,4.357,0,0,0-1.563-.611C1926.838,482.091,1926.729,482,1926.771,481.853Z" transform="translate(-1917.829 -477.026)" fill="#059bdf"/>
</svg>
