<svg xmlns="http://www.w3.org/2000/svg" width="46.15" height="41.285" viewBox="0 0 46.15 41.285">
  <g id="Grupo_1440" data-name="Grupo 1440" transform="translate(657.065 -177.445)">
    <path id="Trazado_485" data-name="Trazado 485" d="M-610.919,199.246q0-6.3-.006-12.6a4.376,4.376,0,0,0-4.339-4.34c-.946-.008-1.872-.014-2.8,0a.578.578,0,0,1-.158-.011.5.5,0,0,1,0-.115c.02-.315.014-.629.009-.932v-.043c0-.072,0-.144,0-.216a3.579,3.579,0,0,0-3.62-3.552,3.578,3.578,0,0,0-3.61,3.562l0,.162c0,.349-.009.71,0,1.069a.516.516,0,0,1,0,.07.488.488,0,0,1-.069,0c-1.751-.01-3.31-.01-4.773,0a.493.493,0,0,1-.087-.006.555.555,0,0,1,0-.093c.015-.362.01-.727,0-1.084l0-.151a3.565,3.565,0,0,0-3.585-3.534h-.009a3.577,3.577,0,0,0-3.635,3.528c-.005.385-.01.833,0,1.279a.5.5,0,0,1,0,.057h-.036c-1.421-.006-2.922-.006-4.867,0h-.024c0-.006,0-.012,0-.019.006-.376,0-.757,0-1.126v-.1a3.558,3.558,0,0,0-3.61-3.62,3.552,3.552,0,0,0-3.621,3.6l0,.259c0,.3-.008.614.006.926a.5.5,0,0,1,0,.081.529.529,0,0,1-.1,0c-.654-.011-1.319-.008-1.961-.006l-.629,0a4.359,4.359,0,0,0-4.606,4.59q0,13.6,0,27.207a4.379,4.379,0,0,0,4.629,4.619q5.859,0,11.719,0h9.08c4.178,0,8.5,0,12.745.006a1.725,1.725,0,0,0,1.326-.513c1.815-1.831,3.761-3.778,6.123-6.125a1.712,1.712,0,0,0,.527-1.274Q-610.92,205.032-610.919,199.246Zm-8.855,12.166,0,1.146c0,1.183,0,2.407.008,3.62a.608.608,0,0,1-.014.168.6.6,0,0,1-.167.016q-8.693-.007-17.386-.006h-.718q-7.185,0-14.371,0a2.085,2.085,0,0,1-2.267-2.266q-.005-4.437,0-8.874v-.027c0-4.007,0-8.151-.01-12.226a.525.525,0,0,1,.018-.163,1.3,1.3,0,0,1,.249-.015h.024q7.895.007,15.79,0h24.995c.115,0,.251,0,.335.006.006.081.006.209.006.311v3.831c0,4.141,0,8.424.012,12.635a.6.6,0,0,1-.034.284s-.049.035-.274.03c-1.174-.025-2.383-.02-3.45-.015l-1.218,0C-619.4,209.871-619.773,210.246-619.774,211.412Zm-30-25.712,0,.248a3.6,3.6,0,0,0,3.2,3.581,3.607,3.607,0,0,0,3.98-2.9.974.974,0,0,0-.075-.834,1,1,0,0,0-.82-.249l-.189,0a2.087,2.087,0,0,1-.281,0,.878.878,0,0,0-1.044.728,1.234,1.234,0,0,1-1.171.885,1.283,1.283,0,0,1-1.169-.981,3.8,3.8,0,0,1-.06-1.03c0-.145.009-.309.007-.472h5.8c1.247,0,2.535,0,3.8-.008a.81.81,0,0,1,.191.016.509.509,0,0,1,0,.132,9.291,9.291,0,0,0-.011.936c0,.087,0,.173.005.26a3.618,3.618,0,0,0,3.213,3.516,3.624,3.624,0,0,0,3.982-2.968.946.946,0,0,0-.151-.811.807.807,0,0,0-.712-.2,1.641,1.641,0,0,1-.378,0,.988.988,0,0,0-1.226.841,1.209,1.209,0,0,1-1.107.771h-.034a1.294,1.294,0,0,1-1.143-.908,3.622,3.622,0,0,1-.077-1.1c0-.154.009-.312.006-.472h2.774c2.094,0,4.467,0,6.737-.012h0a.624.624,0,0,1,.257.03h0s.032.048.025.251l-.009.219a5.494,5.494,0,0,0,.119,1.748,3.635,3.635,0,0,0,3.811,2.62,3.663,3.663,0,0,0,3.267-2.988.908.908,0,0,0-.159-.8.81.81,0,0,0-.724-.2,1.775,1.775,0,0,1-.425,0,.942.942,0,0,0-1.149.8,1.213,1.213,0,0,1-1.164.806,1.287,1.287,0,0,1-1.136-.918,3.835,3.835,0,0,1-.075-1.166c0-.134.009-.268.01-.4h.053l.1,0q1.136,0,2.273,0h2.628c.787,0,1.6,0,2.392,0a2.132,2.132,0,0,1,2.338,2.355c0,.368,0,.735,0,1.1,0,.67-.008,1.363.015,2.048a.536.536,0,0,1-.019.211.7.7,0,0,1-.256.027c-4.369-.008-8.85-.009-12.658-.009h-28.125c-.122,0-.267,0-.351-.007-.007-.083-.007-.224-.007-.343q0-.434,0-.868v-.02c0-.721,0-1.467,0-2.2a2.116,2.116,0,0,1,2.3-2.3c.366,0,.731,0,1.1,0h.028c.412,0,.924,0,1.41-.005a.5.5,0,0,1,.1.005.524.524,0,0,1,0,.087C-649.779,185.08-649.775,185.4-649.77,185.7Zm17.008-3.475a3.019,3.019,0,0,1-1.063.082h-.2a1,1,0,0,0-.1.007h0a1.225,1.225,0,0,0-.724,0,1.1,1.1,0,0,1-.318.04s-.041-.043-.056-.226c-.18-2.154.614-2.232,1.252-2.3a.874.874,0,0,1,.088,0,.976.976,0,0,1,.632.249,1.533,1.533,0,0,1,.509,1.058A3.088,3.088,0,0,1-632.762,182.225Zm12.177-.382c0,.151-.009.307-.007.464h-2.478c0-.133-.005-.266-.01-.4a3.82,3.82,0,0,1,.079-1.184,1.246,1.246,0,0,1,1.171-.9,1.307,1.307,0,0,1,1.168.914h0A3.653,3.653,0,0,1-620.585,181.843ZM-647.4,181.7a3.219,3.219,0,0,1,.074-.965,1.257,1.257,0,0,1,1.137-.907,1.312,1.312,0,0,1,1.181.825,3.58,3.58,0,0,1,.1,1.279c0,.118-.009.248-.011.379h-1.6c-.264,0-.537,0-.808.006a.673.673,0,0,1-.077,0,.441.441,0,0,1,0-.046C-647.39,182.07-647.394,181.88-647.4,181.7Zm30,32.784q0-1.118,0-2.239h2.286l-2.286,2.289Z" fill="#ff7f00"/>
    <g id="Grupo_1342" data-name="Grupo 1342" transform="translate(-640.371 194.24)">
      <path id="Trazado_486" data-name="Trazado 486" d="M-526.182,319.449v2.426h-2.167v-2.361a10.27,10.27,0,0,1-5.394-1.733l1.191-2.643a8.759,8.759,0,0,0,4.2,1.538v-3.618c-2.4-.585-5.091-1.387-5.091-4.484,0-2.3,1.668-4.268,5.091-4.658v-2.4h2.167v2.361a9.8,9.8,0,0,1,4.4,1.322l-1.083,2.665a8.87,8.87,0,0,0-3.315-1.127v3.683c2.4.563,5.048,1.365,5.048,4.42C-521.134,317.088-522.781,319.037-526.182,319.449Zm-2.167-9.576V306.8c-1.148.26-1.6.888-1.6,1.6C-529.952,309.158-529.3,309.57-528.349,309.873Zm3.726,5.221c0-.758-.628-1.17-1.56-1.495v2.99C-525.1,316.351-524.622,315.788-524.622,315.094Z" transform="translate(533.743 -301.511)" fill="#ff7f00"/>
    </g>
  </g>
</svg>
