<svg id="Componente_202_1" data-name="Componente 202 – 1" xmlns="http://www.w3.org/2000/svg" width="16" height="9.314" viewBox="0 0 16 9.314">
  <path id="Trazado_23" data-name="Trazado 23" d="M98.315,299.828a9.438,9.438,0,0,1,7.752,4.294.619.619,0,0,1,0,.75,9.425,9.425,0,0,1-15.667.154.8.8,0,0,1,.007-1.073,9.477,9.477,0,0,1,6.321-3.99c.245-.043.5-.063.744-.084S97.965,299.848,98.315,299.828Zm-.2,1.247c-.331.03-.723.045-1.107.1a8.135,8.135,0,0,0-5.353,3.155.211.211,0,0,0-.006.312,8.3,8.3,0,0,0,1.393,1.428,8.178,8.178,0,0,0,11.649-1.418.219.219,0,0,0,.005-.326A8.26,8.26,0,0,0,98.119,301.075Z" transform="translate(-90.191 -299.828)" fill="#0096d8"/>
  <path id="Trazado_24" data-name="Trazado 24" d="M236.135,356.989a2.481,2.481,0,1,1-2.539,2.466A2.5,2.5,0,0,1,236.135,356.989Zm.009,1.24a1.239,1.239,0,1,0,1.271,1.241A1.29,1.29,0,0,0,236.144,358.229Z" transform="translate(-228.152 -354.802)" fill="#0096d8"/>
</svg>
