<svg id="Grupo_22805" data-name="Grupo 22805" xmlns="http://www.w3.org/2000/svg" width="31.908" height="27.372" viewBox="0 0 31.908 27.372">
  <path id="Trazado_647" data-name="Trazado 647" d="M124.591,441.868c-4.061,0-8.122.007-12.183,0-3.093-.007-4.735-2.772-3.134-5.429q6.067-10.07,12.261-20.063a3.459,3.459,0,0,1,6.157.016q6.2,10.05,12.316,20.154a3.448,3.448,0,0,1-3.024,5.319C132.854,441.881,128.722,441.867,124.591,441.868Zm.036-2.469q5.83,0,11.66,0c.6,0,1.232.083,1.6-.559.356-.619-.064-1.079-.352-1.551q-5.88-9.634-11.771-19.26c-.809-1.322-1.5-1.32-2.319.018q-5.9,9.624-11.772,19.26c-.868,1.424-.485,2.087,1.188,2.091Q118.745,439.407,124.627,439.4Z" transform="translate(-108.651 -414.5)" fill="#bc0000"/>
  <path id="Trazado_651" data-name="Trazado 651" d="M178.185,452.67c0-1.41,0-2.821,0-4.231,0-.8.262-1.43,1.164-1.448.938-.018,1.3.6,1.3,1.453q.016,4.284,0,8.568c0,.817-.4,1.412-1.243,1.411s-1.223-.586-1.221-1.416Q178.19,454.839,178.185,452.67Z" transform="translate(-163.441 -440.102)" fill="#bc0000"/>
  <path id="Trazado_652" data-name="Trazado 652" d="M179.478,510.849c.794.1,1.262.506,1.235,1.247a1.133,1.133,0,0,1-1.237,1.173,1.211,1.211,0,0,1,0-2.42Z" transform="translate(-163.545 -490.42)" fill="#bc0000"/>
</svg>
