<svg xmlns="http://www.w3.org/2000/svg" width="30.212" height="20.918" viewBox="0 0 30.212 20.918">
  <g id="Grupo_22754" data-name="Grupo 22754" transform="translate(-35.901 -144.273)">
    <g id="Grupo_22753" data-name="Grupo 22753" transform="translate(-1478.285 -369.039)">
      <path id="Trazado_17303" data-name="Trazado 17303" d="M1544.126,520.458l-.163-.116c-.166-.117-.338-.239-.492-.372a.379.379,0,0,1-.112-.232,9.669,9.669,0,0,1,0-1.007.341.341,0,0,1,.094-.212c.154-.131.323-.252.488-.368l.191-.137a.567.567,0,0,0,.224-.7,5.894,5.894,0,0,0-1.089-1.887.575.575,0,0,0-.445-.225.69.69,0,0,0-.277.064l-.417.182c-.253.11-.515.223-.771.341a.545.545,0,0,0-.321.726.53.53,0,0,0,.5.339.7.7,0,0,0,.264-.055c.1-.042.205-.088.3-.133.147-.066.3-.135.451-.189a.1.1,0,0,1,.03,0,.225.225,0,0,1,.107.025c.143.214.271.436.407.67l.1.164-.179.134c-.187.14-.364.272-.544.4a.667.667,0,0,0-.281.641c.022.489.022.983,0,1.469a.671.671,0,0,0,.276.643c.18.126.358.258.546.4l.181.135-.109.185c-.129.219-.251.427-.371.641-.039.069-.063.069-.073.069a.247.247,0,0,1-.1-.031c-.132-.065-.268-.124-.4-.181-.1-.044-.206-.089-.306-.136a.62.62,0,0,0-.267-.064.8.8,0,0,0-.427.152,13.007,13.007,0,0,1-1.245.72.689.689,0,0,0-.442.576c-.009.1-.02.2-.031.3-.017.153-.035.312-.045.469-.007.106-.035.116-.108.116h-.209c-.212,0-.431,0-.647,0h0c-.087,0-.121-.013-.128-.15-.01-.182-.031-.365-.052-.542-.009-.077-.018-.154-.026-.231a.663.663,0,0,0-.413-.534c-.47-.244-.886-.484-1.272-.732a.77.77,0,0,0-.423-.148.63.63,0,0,0-.272.065c-.254.12-.484.226-.724.313a.1.1,0,0,1-.03,0,.214.214,0,0,1-.089-.018c-.146-.222-.278-.449-.418-.689l-.093-.158.174-.13c.176-.132.342-.257.513-.37a.723.723,0,0,0,.31-.74,9.727,9.727,0,0,1,0-1.353.707.707,0,0,0-.3-.716c-.17-.114-.338-.24-.516-.372l-.183-.136.1-.164c.138-.236.268-.459.41-.676a.2.2,0,0,1,.1-.027h.015a7.663,7.663,0,0,1,.723.311.648.648,0,0,0,.284.069.785.785,0,0,0,.436-.155,13.441,13.441,0,0,1,1.246-.718.677.677,0,0,0,.43-.554c.006-.066.012-.131.018-.2.017-.195.035-.4.071-.588a.226.226,0,0,1,.093-.109c.147-.011.3-.016.446-.016s.294.005.439.016a.221.221,0,0,1,.1.106c.028.152.043.312.058.466.011.115.022.233.038.35a.559.559,0,0,0,.547.531l.046,0a.525.525,0,0,0,.368-.182.627.627,0,0,0,.131-.465c-.035-.4-.08-.809-.124-1.2l-.01-.09a.546.546,0,0,0-.515-.54c-.12-.009-.242-.019-.36-.029-.3-.026-.615-.053-.923-.053-.115,0-.221,0-.324.011-.478.034-.735.059-.892.219s-.18.439-.212.9c-.028.4-.142.569-.454.676a1.643,1.643,0,0,0-.375.209.878.878,0,0,1-.4.192h-.014a1.192,1.192,0,0,1-.513-.194c-.092-.05-.187-.1-.283-.143a.878.878,0,0,0-.342-.086.555.555,0,0,0-.463.3,11.677,11.677,0,0,0-.861,1.39c-.19.383-.274.585-.221.78s.23.329.565.574l.038.03a.583.583,0,0,0,.114.077.532.532,0,0,1,.32.657,1.856,1.856,0,0,0,0,.428.947.947,0,0,1-.038.474,1.25,1.25,0,0,1-.469.392c-.083.05-.168.1-.246.158a.564.564,0,0,0-.221.76q.073.148.144.3a9.767,9.767,0,0,0,.588,1.1c.284.437.446.665.737.665a2.073,2.073,0,0,0,.732-.239l.018-.008a.382.382,0,0,0,.074-.037.614.614,0,0,1,.342-.123.638.638,0,0,1,.406.182,1.768,1.768,0,0,0,.369.221.921.921,0,0,1,.382.266,1.208,1.208,0,0,1,.1.582c0,.1.005.212.017.315a.587.587,0,0,0,.522.555,5.932,5.932,0,0,0,1.072.1,6,6,0,0,0,1.052-.094.6.6,0,0,0,.542-.6l.006-.067c.022-.246.044-.5.087-.745a.3.3,0,0,1,.123-.165c.292-.185.594-.359.9-.519a.318.318,0,0,1,.139-.032.2.2,0,0,1,.065.009c.229.083.456.188.677.288l.1.046a.714.714,0,0,0,.3.071.61.61,0,0,0,.472-.248,6.055,6.055,0,0,0,1.059-1.839A.579.579,0,0,0,1544.126,520.458Z" transform="translate(0)" fill="#0096d8"/>
      <path id="Trazado_17304" data-name="Trazado 17304" d="M1611.7,595.02a1.323,1.323,0,1,0,1.327,1.335A1.325,1.325,0,0,0,1611.7,595.02Zm-.009,1.762a.439.439,0,1,1,.45-.428A.444.444,0,0,1,1611.7,596.782Z" transform="translate(-72.875 -77.106)" fill="#0096d8"/>
    </g>
    <g id="Grupo_22751" data-name="Grupo 22751" transform="translate(-39.428 -207.287)">
      <path id="Trazado_17320" data-name="Trazado 17320" d="M94.093,372.378a1.216,1.216,0,0,0,.245-.218.4.4,0,0,0-.377-.588c-.311-.011-.623,0-.935,0h-.235v-.257q0-4.52,0-9.041c0-.442-.13-.562-.609-.562H89.968v-.262q0-3.681,0-7.362c0-.448-.124-.564-.6-.564H88.61c0-.455,0-.892,0-1.328,0-.4-.144-.532-.575-.532H81.467c-.422,0-.562.13-.563.519,0,.437,0,.874,0,1.34h-.811c-.4,0-.553.136-.554.511q0,2.316,0,4.632v.28H76.931c-.554,0-.666.1-.666.612q0,5.865,0,11.731v.275c-.321.03-.707-.08-.822.328-.067.236.1.374.289.489Zm-7.157-.819v-.253c0-.762,0-1.524,0-2.286,0-.389-.147-.526-.561-.526H83.133c-.41,0-.561.142-.562.528q0,1.163,0,2.327v.209H80.425V354.344h8.661v17.214Zm-9.783,0v-11.79h2.372v11.79ZM91.9,362.527v9.028H89.986v-9.028Zm-4.171-9.02H81.792v-1.022h5.942Zm-4.276,18.052v-2.241h2.592v2.241Z" fill="#202256" stroke="#202256" stroke-width="0.2"/>
      <path id="Trazado_17321" data-name="Trazado 17321" d="M182.514,580.109c0,.3,0,.593,0,.89a.394.394,0,0,0,.425.434q.91.011,1.82,0a.4.4,0,0,0,.424-.44q.008-.9,0-1.8a.4.4,0,0,0-.43-.433q-.91-.013-1.82,0a.391.391,0,0,0-.42.439C182.511,579.5,182.514,579.805,182.514,580.109Zm.821.5V579.58h1.033v1.031Z" transform="translate(-97.095 -214.817)" fill="#202256" stroke="#202256" stroke-width="0.2"/>
      <path id="Trazado_17322" data-name="Trazado 17322" d="M250.527,580.1c0,.29,0,.58,0,.87a.408.408,0,0,0,.447.457q.89.009,1.78,0a.405.405,0,0,0,.444-.459q0-.88,0-1.76a.4.4,0,0,0-.446-.456q-.89-.01-1.78,0a.4.4,0,0,0-.445.458C250.524,579.509,250.527,579.806,250.527,580.1Zm.818-.525h1.036v1.033h-1.036Z" transform="translate(-169.108 -214.813)" fill="#202256" stroke="#202256" stroke-width="0.2"/>
      <path id="Trazado_17323" data-name="Trazado 17323" d="M250.519,428.007c0,.3,0,.593,0,.89a.393.393,0,0,0,.42.439q.92.011,1.84,0a.386.386,0,0,0,.409-.427q.006-.91,0-1.82a.389.389,0,0,0-.4-.42q-.93-.015-1.86,0a.4.4,0,0,0-.41.431C250.516,427.4,250.519,427.7,250.519,428.007Zm.821-.523h1.028v1.036H251.34Z" transform="translate(-169.101 -70.945)" fill="#202256" stroke="#202256" stroke-width="0.2"/>
      <path id="Trazado_17324" data-name="Trazado 17324" d="M182.514,504.125c0,.3,0,.593,0,.89a.4.4,0,0,0,.453.447q.88,0,1.76,0a.409.409,0,0,0,.457-.448q.008-.89,0-1.78a.408.408,0,0,0-.458-.446q-.88,0-1.76,0a.4.4,0,0,0-.452.447C182.511,503.532,182.514,503.828,182.514,504.125Zm.825.519v-1.037h1.026v1.037Z" transform="translate(-97.095 -142.957)" fill="#202256" stroke="#202256" stroke-width="0.2"/>
      <path id="Trazado_17325" data-name="Trazado 17325" d="M250.52,504.111c0,.3,0,.593,0,.89a.408.408,0,0,0,.447.456q.89.005,1.78,0a.4.4,0,0,0,.443-.438q.006-.9,0-1.8a.4.4,0,0,0-.425-.434q-.91-.007-1.821,0a.4.4,0,0,0-.424.436C250.517,503.518,250.52,503.814,250.52,504.111Zm1.852-.51v1.035h-1.029V503.6Z" transform="translate(-169.102 -142.952)" fill="#202256" stroke="#202256" stroke-width="0.2"/>
      <path id="Trazado_17326" data-name="Trazado 17326" d="M182.517,428.019c0,.29,0,.58,0,.87s.142.446.428.449q.9.011,1.8,0a.4.4,0,0,0,.442-.44q.008-.89,0-1.78a.411.411,0,0,0-.453-.454q-.89-.008-1.78,0a.4.4,0,0,0-.437.444C182.514,427.413,182.517,427.716,182.517,428.019Zm.819-.533h1.03v1.029h-1.03Z" transform="translate(-97.098 -70.947)" fill="#202256" stroke="#202256" stroke-width="0.2"/>
    </g>
  </g>
</svg>
