<svg xmlns="http://www.w3.org/2000/svg" width="26.347" height="20.842" viewBox="0 0 26.347 20.842">
  <g id="Grupo_22752" data-name="Grupo 22752" transform="translate(-1318.767 -79.678)">
    <g id="Grupo_1116" data-name="Grupo 1116">
      <g id="Elipse_59" data-name="Elipse 59" transform="translate(1322 81)" fill="none" stroke="#202256" stroke-width="1.5">
        <circle cx="5" cy="5" r="5" stroke="none"/>
        <circle cx="5" cy="5" r="4.25" fill="none"/>
      </g>
      <g id="Grupo_1118" data-name="Grupo 1118" transform="translate(360.473 62)">
        <path id="Trazado_370" data-name="Trazado 370" d="M10791.828-2165.369c-8.208,0-7.772,7.046-7.772,7.046" transform="translate(-9825 2196)" fill="none" stroke="#202256" stroke-linecap="round" stroke-width="1.5"/>
        <path id="Trazado_371" data-name="Trazado 371" d="M10792.642-2158.323s.935-7.046-8.207-7.046" transform="translate(-9817.606 2196)" fill="none" stroke="#202256" stroke-linecap="round" stroke-width="1.5"/>
      </g>
    </g>
    <g id="Grupo_22750" data-name="Grupo 22750" transform="translate(-199.284 -433.735)">
      <path id="Trazado_17303" data-name="Trazado 17303" d="M1544.126,520.458l-.163-.116c-.166-.117-.338-.239-.492-.372a.379.379,0,0,1-.112-.232,9.669,9.669,0,0,1,0-1.007.341.341,0,0,1,.094-.212c.154-.131.323-.252.488-.368l.191-.137a.567.567,0,0,0,.224-.7,5.894,5.894,0,0,0-1.089-1.887.575.575,0,0,0-.445-.225.69.69,0,0,0-.277.064l-.417.182c-.253.11-.515.223-.771.341a.545.545,0,0,0-.321.726.53.53,0,0,0,.5.339.7.7,0,0,0,.264-.055c.1-.042.205-.088.3-.133.147-.066.3-.135.451-.189a.1.1,0,0,1,.03,0,.225.225,0,0,1,.107.025c.143.214.271.436.407.67l.1.164-.179.134c-.187.14-.364.272-.544.4a.667.667,0,0,0-.281.641c.022.489.022.983,0,1.469a.671.671,0,0,0,.276.643c.18.126.358.258.546.4l.181.135-.109.185c-.129.219-.251.427-.371.641-.039.069-.063.069-.073.069a.247.247,0,0,1-.1-.031c-.132-.065-.268-.124-.4-.181-.1-.044-.206-.089-.306-.136a.62.62,0,0,0-.267-.064.8.8,0,0,0-.427.152,13.007,13.007,0,0,1-1.245.72.689.689,0,0,0-.442.576c-.009.1-.02.2-.031.3-.017.153-.035.312-.045.469-.007.106-.035.116-.108.116h-.209c-.212,0-.431,0-.647,0h0c-.087,0-.121-.013-.128-.15-.01-.182-.031-.365-.052-.542-.009-.077-.018-.154-.026-.231a.663.663,0,0,0-.413-.534c-.47-.244-.886-.484-1.272-.732a.77.77,0,0,0-.423-.148.63.63,0,0,0-.272.065c-.254.12-.484.226-.724.313a.1.1,0,0,1-.03,0,.214.214,0,0,1-.089-.018c-.146-.222-.278-.449-.418-.689l-.093-.158.174-.13c.176-.132.342-.257.513-.37a.723.723,0,0,0,.31-.74,9.727,9.727,0,0,1,0-1.353.707.707,0,0,0-.3-.716c-.17-.114-.338-.24-.516-.372l-.183-.136.1-.164c.138-.236.268-.459.41-.676a.2.2,0,0,1,.1-.027h.015a7.663,7.663,0,0,1,.723.311.648.648,0,0,0,.284.069.785.785,0,0,0,.436-.155,13.441,13.441,0,0,1,1.246-.718.677.677,0,0,0,.43-.554c.006-.066.012-.131.018-.2.017-.195.035-.4.071-.588a.226.226,0,0,1,.093-.109c.147-.011.3-.016.446-.016s.294.005.439.016a.221.221,0,0,1,.1.106c.028.152.043.312.058.466.011.115.022.233.038.35a.559.559,0,0,0,.547.531l.046,0a.525.525,0,0,0,.368-.182.627.627,0,0,0,.131-.465c-.035-.4-.08-.809-.124-1.2l-.01-.09a.546.546,0,0,0-.515-.54c-.12-.009-.242-.019-.36-.029-.3-.026-.615-.053-.923-.053-.115,0-.221,0-.324.011-.478.034-.735.059-.892.219s-.18.439-.212.9c-.028.4-.142.569-.454.676a1.643,1.643,0,0,0-.375.209.878.878,0,0,1-.4.192h-.014a1.192,1.192,0,0,1-.513-.194c-.092-.05-.187-.1-.283-.143a.878.878,0,0,0-.342-.086.555.555,0,0,0-.463.3,11.677,11.677,0,0,0-.861,1.39c-.19.383-.274.585-.221.78s.23.329.565.574l.038.03a.583.583,0,0,0,.114.077.532.532,0,0,1,.32.657,1.856,1.856,0,0,0,0,.428.947.947,0,0,1-.038.474,1.25,1.25,0,0,1-.469.392c-.083.05-.168.1-.246.158a.564.564,0,0,0-.221.76q.073.148.144.3a9.767,9.767,0,0,0,.588,1.1c.284.437.446.665.737.665a2.073,2.073,0,0,0,.732-.239l.018-.008a.382.382,0,0,0,.074-.037.614.614,0,0,1,.342-.123.638.638,0,0,1,.406.182,1.768,1.768,0,0,0,.369.221.921.921,0,0,1,.382.266,1.208,1.208,0,0,1,.1.582c0,.1.005.212.017.315a.587.587,0,0,0,.522.555,5.932,5.932,0,0,0,1.072.1,6,6,0,0,0,1.052-.094.6.6,0,0,0,.542-.6l.006-.067c.022-.246.044-.5.087-.745a.3.3,0,0,1,.123-.165c.292-.185.594-.359.9-.519a.318.318,0,0,1,.139-.032.2.2,0,0,1,.065.009c.229.083.456.188.677.288l.1.046a.714.714,0,0,0,.3.071.61.61,0,0,0,.472-.248,6.055,6.055,0,0,0,1.059-1.839A.579.579,0,0,0,1544.126,520.458Z" transform="translate(0)" fill="#0096d8"/>
      <path id="Trazado_17304" data-name="Trazado 17304" d="M1611.7,595.02a1.323,1.323,0,1,0,1.327,1.335A1.325,1.325,0,0,0,1611.7,595.02Zm-.009,1.762a.439.439,0,1,1,.45-.428A.444.444,0,0,1,1611.7,596.782Z" transform="translate(-72.875 -77.106)" fill="#0096d8"/>
    </g>
  </g>
</svg>
