<svg id="Grupo_1496" data-name="Grupo 1496" xmlns="http://www.w3.org/2000/svg" width="20" height="22.102" viewBox="0 0 20 22.102">
  <path id="Trazado_638" data-name="Trazado 638" d="M1239.922,6.737a3.491,3.491,0,0,1-1.594-.765,3.091,3.091,0,0,1-1.046-1.788c-.042-.221-.125-.286-.349-.284-1.337.011-2.674.007-4.01.005a2.5,2.5,0,0,1-2.465-2.233,2.539,2.539,0,0,1,2.123-2.754c.127-.021.256-.034.384-.043.231-.016.309-.087.311-.32,0-.611,0-1.222,0-1.833.007-1-.037-2,.034-3a6.926,6.926,0,0,1,1.48-3.842,7.02,7.02,0,0,1,3.019-2.257c.137-.054.213-.111.192-.279a2.443,2.443,0,0,1,1.913-2.663,2.468,2.468,0,0,1,2.986,2.28.84.84,0,0,1-.011.3c-.068.221.024.312.221.4a7.3,7.3,0,0,1,4.4,5.7,7.3,7.3,0,0,1,.085,1.245c.007,1.286,0,2.573,0,3.86,0,.348.046.393.4.409a2.576,2.576,0,0,1,2.444,2.494,2.5,2.5,0,0,1-2.464,2.534c-1.365,0-2.731,0-4.1,0a.231.231,0,0,0-.271.219,3.2,3.2,0,0,1-2.572,2.589.852.852,0,0,0-.081.028Zm.511-4.309h7.223c.136,0,.274,0,.409-.013a1.028,1.028,0,0,0,.879-1.192,1.054,1.054,0,0,0-1.024-.855,1.8,1.8,0,0,1-1.812-1.882c.042-1.328.015-2.659.009-3.988a6.1,6.1,0,0,0-.435-2.27,5.651,5.651,0,0,0-5.953-3.578,5.512,5.512,0,0,0-4.069,2.58,5.623,5.623,0,0,0-.9,3.125c-.009,1.437,0,2.875,0,4.312a1.622,1.622,0,0,1-.455,1.131,1.848,1.848,0,0,1-1.372.571,1.08,1.08,0,0,0-.968.737,1.032,1.032,0,0,0,.4,1.142,1.231,1.231,0,0,0,.782.183Zm.03,1.478c-.509,0-1.019.006-1.528,0-.186,0-.2.058-.147.214a1.759,1.759,0,0,0,3.3,0c.064-.182.012-.22-.165-.217C1241.438,3.912,1240.95,3.906,1240.462,3.906Zm-.026-17.785a.976.976,0,0,0-.967.812c-.039.223.009.267.236.24a6.234,6.234,0,0,1,1.476-.007c.224.026.269-.014.227-.239A.974.974,0,0,0,1240.436-13.88Z" transform="translate(-1230.442 15.365)" fill="#202256"/>
  <path id="Trazado_639" data-name="Trazado 639" d="M1234.919,31.255a.914.914,0,0,1-.317.614,8.1,8.1,0,0,0-1.768,2.728,9.028,9.028,0,0,0-.381,1.232.739.739,0,0,1-.878.6.718.718,0,0,1-.577-.865,9.653,9.653,0,0,1,2.639-4.825.709.709,0,0,1,.826-.182A.754.754,0,0,1,1234.919,31.255Z" transform="translate(-1230.949 -27.852)" fill="#0096d8"/>
  <path id="Trazado_640" data-name="Trazado 640" d="M1511.736,36.489a.758.758,0,0,1-.749-.621,9.164,9.164,0,0,0-.344-1.131,8.172,8.172,0,0,0-1.82-2.845.8.8,0,0,1-.278-.791.733.733,0,0,1,1.257-.322,9.567,9.567,0,0,1,2.244,3.484,8.291,8.291,0,0,1,.392,1.341A.735.735,0,0,1,1511.736,36.489Z" transform="translate(-1492.498 -27.894)" fill="#0096d8"/>
</svg>
