<svg xmlns="http://www.w3.org/2000/svg" width="32" height="22.016" viewBox="0 0 32 22.016">
  <g id="Grupo_22754" data-name="Grupo 22754" transform="translate(-36 -144.373)">
    <g id="Grupo_22753" data-name="Grupo 22753" transform="translate(56.158 144.374)">
      <path id="Trazado_17303" data-name="Trazado 17303" d="M1544.807,520.9l-.173-.124c-.177-.125-.359-.254-.523-.4a.4.4,0,0,1-.12-.246,10.273,10.273,0,0,1,0-1.07.362.362,0,0,1,.1-.225c.163-.139.344-.267.518-.392l.2-.146a.6.6,0,0,0,.239-.747,6.263,6.263,0,0,0-1.157-2,.611.611,0,0,0-.472-.239.733.733,0,0,0-.295.068l-.443.193c-.269.117-.547.237-.819.362a.579.579,0,0,0-.341.771.563.563,0,0,0,.531.36.739.739,0,0,0,.281-.058c.109-.045.218-.094.323-.142.156-.071.318-.143.479-.2a.107.107,0,0,1,.032,0,.239.239,0,0,1,.114.027c.152.228.288.463.432.712l.1.174-.19.142c-.2.149-.387.289-.578.423a.709.709,0,0,0-.3.681c.023.52.023,1.045,0,1.561a.713.713,0,0,0,.293.684c.192.134.38.275.58.424l.192.143-.116.2c-.137.233-.267.453-.394.681-.041.074-.067.074-.078.074a.263.263,0,0,1-.1-.034c-.14-.069-.285-.132-.425-.192-.108-.046-.219-.094-.326-.144a.66.66,0,0,0-.284-.068.846.846,0,0,0-.454.161,13.826,13.826,0,0,1-1.323.765.733.733,0,0,0-.469.612c-.01.107-.022.216-.033.321-.018.163-.037.331-.048.5-.007.112-.037.123-.115.123h-.222c-.225,0-.458,0-.687,0h-.005c-.093,0-.128-.014-.136-.159-.01-.194-.033-.388-.055-.576-.01-.082-.019-.164-.028-.246a.7.7,0,0,0-.439-.568c-.5-.26-.941-.514-1.352-.778a.818.818,0,0,0-.449-.157.67.67,0,0,0-.29.069c-.27.127-.514.24-.77.333a.1.1,0,0,1-.031,0,.229.229,0,0,1-.095-.019c-.155-.236-.3-.477-.445-.732l-.1-.168.185-.138c.187-.14.364-.273.545-.393a.768.768,0,0,0,.329-.786,10.323,10.323,0,0,1,0-1.438.751.751,0,0,0-.319-.761c-.18-.121-.359-.255-.548-.4l-.195-.145.1-.175c.146-.251.284-.488.436-.718a.215.215,0,0,1,.1-.029h.015a8.144,8.144,0,0,1,.768.331.689.689,0,0,0,.3.074.834.834,0,0,0,.463-.165,14.288,14.288,0,0,1,1.324-.763.719.719,0,0,0,.457-.588c.007-.07.013-.14.019-.209.018-.207.037-.421.075-.625a.24.24,0,0,1,.1-.116c.157-.011.316-.017.474-.017s.312.006.467.017a.235.235,0,0,1,.1.112c.03.162.046.331.061.5.012.122.023.248.041.372a.594.594,0,0,0,.581.565l.049,0a.557.557,0,0,0,.391-.194.666.666,0,0,0,.139-.494c-.037-.427-.085-.859-.132-1.278l-.011-.1a.58.58,0,0,0-.547-.574c-.127-.009-.257-.02-.382-.031-.321-.028-.654-.056-.981-.056-.122,0-.234,0-.345.012-.508.036-.781.063-.948.233s-.191.467-.225.951c-.029.423-.151.6-.482.719a1.746,1.746,0,0,0-.4.222.933.933,0,0,1-.427.2h-.015a1.266,1.266,0,0,1-.545-.206c-.1-.053-.2-.109-.3-.152a.933.933,0,0,0-.363-.091.589.589,0,0,0-.492.317,12.418,12.418,0,0,0-.915,1.477c-.2.407-.292.622-.235.829s.244.349.6.61l.04.032a.622.622,0,0,0,.121.082.565.565,0,0,1,.34.7,1.972,1.972,0,0,0,0,.455,1.006,1.006,0,0,1-.04.5,1.328,1.328,0,0,1-.5.416c-.088.053-.178.108-.261.168a.6.6,0,0,0-.235.808q.077.157.153.316a10.393,10.393,0,0,0,.625,1.169c.3.464.474.707.783.707a2.2,2.2,0,0,0,.778-.254l.019-.008a.406.406,0,0,0,.079-.039.652.652,0,0,1,.363-.131.678.678,0,0,1,.431.193,1.88,1.88,0,0,0,.392.235.978.978,0,0,1,.406.283,1.283,1.283,0,0,1,.107.619c0,.111.005.225.018.335a.624.624,0,0,0,.555.59,6.3,6.3,0,0,0,1.139.1,6.381,6.381,0,0,0,1.118-.1.641.641,0,0,0,.576-.64l.006-.071c.023-.262.047-.532.093-.791a.32.32,0,0,1,.13-.176c.31-.2.631-.382.953-.552a.338.338,0,0,1,.148-.034.211.211,0,0,1,.069.01c.243.088.485.2.719.307l.106.049a.758.758,0,0,0,.313.075.649.649,0,0,0,.5-.263,6.434,6.434,0,0,0,1.125-1.954A.616.616,0,0,0,1544.807,520.9Z" transform="translate(-1533.254 -513.413)" fill="#fff"/>
      <path id="Trazado_17304" data-name="Trazado 17304" d="M1611.787,595.02a1.406,1.406,0,1,0,1.41,1.419A1.408,1.408,0,0,0,1611.787,595.02Zm-.009,1.873a.466.466,0,1,1,.479-.455A.472.472,0,0,1,1611.778,596.893Z" transform="translate(-1605.863 -590.237)" fill="#fff"/>
    </g>
    <g id="Grupo_22751" data-name="Grupo 22751" transform="translate(36 144.373)">
      <path id="Trazado_17320" data-name="Trazado 17320" d="M95.263,373.676a1.291,1.291,0,0,0,.26-.232.42.42,0,0,0-.4-.625c-.331-.011-.662,0-.994,0H93.88v-.273q0-4.8,0-9.607c0-.469-.138-.6-.647-.6H90.879v-.279q0-3.912,0-7.823c0-.476-.132-.6-.639-.6h-.8c0-.484,0-.947,0-1.411,0-.424-.153-.565-.611-.565h-6.98c-.448,0-.6.138-.6.552,0,.465,0,.929,0,1.424h-.862c-.428,0-.588.145-.588.543q0,2.461,0,4.922v.3h-2.77c-.589,0-.708.109-.708.65q0,6.233,0,12.466v.293c-.341.032-.751-.085-.874.349-.071.25.1.4.307.52Zm-7.606-.871v-.269c0-.81,0-1.62,0-2.429,0-.414-.157-.559-.6-.559H83.616c-.436,0-.6.15-.6.561q0,1.236,0,2.472v.223h-2.28V354.512h9.2v18.293Zm-10.4,0V360.277h2.521v12.529Zm15.677-9.6V372.8H90.9v-9.594Zm-4.432-9.585H82.191v-1.086h6.315Zm-4.544,19.184v-2.381h2.755v2.381Z" transform="translate(-75.428 -351.66)" fill="#fff"/>
      <path id="Trazado_17321" data-name="Trazado 17321" d="M182.514,580.193c0,.315,0,.631,0,.946a.419.419,0,0,0,.452.461q.967.012,1.934,0a.425.425,0,0,0,.451-.467q.009-.956,0-1.913a.421.421,0,0,0-.457-.46q-.967-.013-1.934,0a.416.416,0,0,0-.446.466C182.511,579.549,182.514,579.871,182.514,580.193Zm.873.535v-1.1h1.1v1.1Z" transform="translate(-171.897 -565.708)" fill="#fff"/>
      <path id="Trazado_17322" data-name="Trazado 17322" d="M250.527,580.187c0,.308,0,.616,0,.924a.434.434,0,0,0,.475.486q.946.01,1.891,0a.431.431,0,0,0,.471-.488q0-.935,0-1.87a.428.428,0,0,0-.474-.485q-.945-.011-1.891,0a.43.43,0,0,0-.473.487C250.524,579.557,250.527,579.872,250.527,580.187Zm.869-.558h1.1v1.1h-1.1Z" transform="translate(-244.161 -565.703)" fill="#fff"/>
      <path id="Trazado_17323" data-name="Trazado 17323" d="M250.519,428.092c0,.315,0,.631,0,.946a.418.418,0,0,0,.446.466q.978.012,1.956,0a.41.41,0,0,0,.435-.454q.006-.967,0-1.934a.414.414,0,0,0-.423-.447q-.988-.016-1.977,0a.421.421,0,0,0-.436.458C250.515,427.447,250.519,427.769,250.519,428.092Zm.872-.555h1.092v1.1h-1.092Z" transform="translate(-244.153 -422.351)" fill="#fff"/>
      <path id="Trazado_17324" data-name="Trazado 17324" d="M182.514,504.209c0,.315,0,.63,0,.946a.427.427,0,0,0,.481.474q.935.005,1.87,0a.435.435,0,0,0,.486-.476q.008-.946,0-1.892a.433.433,0,0,0-.487-.473q-.935,0-1.87,0a.425.425,0,0,0-.48.475C182.511,503.578,182.514,503.894,182.514,504.209Zm.876.552v-1.1h1.091v1.1Z" transform="translate(-171.896 -494.105)" fill="#fff"/>
      <path id="Trazado_17325" data-name="Trazado 17325" d="M250.52,504.194c0,.315,0,.63,0,.946a.433.433,0,0,0,.475.484q.946.006,1.892,0a.427.427,0,0,0,.471-.465q.006-.956,0-1.913a.42.42,0,0,0-.452-.461q-.967-.008-1.935,0a.423.423,0,0,0-.45.463C250.516,503.564,250.52,503.879,250.52,504.194Zm1.968-.542v1.1h-1.094v-1.1Z" transform="translate(-244.154 -494.1)" fill="#fff"/>
      <path id="Trazado_17326" data-name="Trazado 17326" d="M182.517,428.1c0,.308,0,.616,0,.924s.151.474.455.477q.956.011,1.913,0a.426.426,0,0,0,.469-.468q.009-.946,0-1.891a.437.437,0,0,0-.482-.482q-.946-.009-1.891,0a.426.426,0,0,0-.465.472C182.514,427.46,182.517,427.782,182.517,428.1Zm.871-.567h1.094v1.093h-1.094Z" transform="translate(-171.899 -422.352)" fill="#fff"/>
    </g>
  </g>
</svg>
